<?xml version="1.0" encoding="utf-8"?>
<!-- Generator: Adobe Illustrator 21.1.0, SVG Export Plug-In . SVG Version: 6.00 Build 0)  -->
<svg version="1.1" id="Layer_1" xmlns="http://www.w3.org/2000/svg" xmlns:xlink="http://www.w3.org/1999/xlink" x="0px" y="0px"
	 viewBox="0 0 81 80.3" style="enable-background:new 0 0 81 80.3;" xml:space="preserve">
<style type="text/css">
	.st0{fill:#B1171C;}
	.st1{stroke:#000000;stroke-width:0.25;stroke-miterlimit:10;}
	.st2{stroke:#000000;stroke-width:0.15;stroke-miterlimit:10;}
	.st3{stroke:#000000;stroke-width:0.2;stroke-miterlimit:10;}
	.st4{display:none;}
	.st5{display:inline;}
	.st6{fill:#FFFFFF;}
	.st7{display:inline;fill:none;stroke:#00A651;stroke-width:0.25;stroke-linejoin:round;stroke-miterlimit:10;}
</style>
<g id="Color_Logo">
	<g>
		<path class="st0" d="M41.5,17.5c-6.9,16.1-13.6,32-20.4,48c2.2,0,4.3,0,6.3,0c0.3,0,0.6-0.3,0.8-0.6c2.6-5.7,5.1-11.4,7.6-17.2
			c1.9-4.4,3.6-8.9,5.3-13.3c0.1-0.3,0.3-0.6,0.5-1c0.2,0.6,0.4,0.9,0.6,1.3c3.4,8.1,6.7,16.2,10.1,24.3c0.8,2,1.7,3.9,2.6,5.8
			c0.1,0.3,0.5,0.7,0.7,0.7c2.1,0.1,4.1,0,6.4,0C55.1,49.5,48.3,33.7,41.5,17.5z"/>
	</g>
	<g>
		<path class="st1" d="M41.9,18.1c0-5.3,0.2-10.5,0.3-15.9c-0.6,0-1.3,0-1.9,0c0,2.5,0.2,4.9,0.2,7.4c0.2,2.3,0.2,4.6,0.3,6.9
			c0.1,1.1,0.1,2.3,0.1,3.4c0.1,2.1,0.2,4.1,0.2,6.2c0.2,2.2,0.2,4.4,0.3,6.5c0,0,0.1,0,0.1,0C41.7,27.9,41.7,22.9,41.9,18.1z"/>
		<path class="st1" d="M46,2.5c0.7,0,1.3,0.2,2,0.2l0,0.1c-0.1,3.5-0.1,6.8-0.2,10.3c0,2.5,0,4.9-0.2,7.3c-0.1,3.3-0.1,6.7-0.2,10
			c0,1.4-0.1,2.8-0.1,4.2c-0.1,0.5,0,1.4-0.1,1.9c0-0.5,0-1.1,0-1.6c-0.1-2-0.1-4.1-0.3-6.1c0-2-0.1-4-0.2-6c0-1.3,0-2.4-0.1-3.7
			c-0.1-2.2-0.1-4.5-0.3-6.7c0-2.4-0.2-4.7-0.3-7.1c0-0.8-0.1-1.7-0.1-2.5C45.9,2.7,45.9,2.6,46,2.5L46,2.5z"/>
		<path class="st1" d="M36.5,2.6c-0.1,2.7-0.1,5.3-0.2,8c-0.1,3.8-0.2,7.5-0.2,11.3c-0.1,2.4-0.2,4.9-0.2,7.3c0,2.4-0.1,4.8-0.2,7.2
			c-0.1-0.1-0.1-0.2-0.1-0.3c0-1.4-0.1-2.8-0.2-4.2c-0.1-1.4-0.1-2.9-0.2-4.3c-0.1-0.9-0.1-1.9-0.1-2.8c-0.1-1.3-0.1-2.5-0.2-3.8
			c0-2.2-0.2-4.4-0.2-6.6c0-1.8-0.2-3.6-0.2-5.4c-0.1-1.8-0.2-3.6-0.2-5.4c0-0.2-0.1-0.5,0-0.7C35,2.8,35.9,2.6,36.5,2.6L36.5,2.6z"
			/>
		<path class="st1" d="M30.7,3.7c0.1,0.2,0,0.4,0,0.6c0,1.7-0.1,3.4-0.1,5.1c-0.1,5.7-0.3,10.5-0.3,16.3c-0.2,4.4-0.1,8.5-0.3,12.9
			c-0.1-1.3,0-2.6-0.2-3.9c-0.1-2.1-0.1-4.1-0.2-6.2c-0.1-1.4-0.1-2.8-0.2-4.2c-0.1-2.1-0.1-4.1-0.3-6.2C29,16,29,14,28.9,11.9
			c0-2.5-0.2-5-0.3-7.5l0-0.1C29.3,4.1,30,3.8,30.7,3.7L30.7,3.7z"/>
		<path class="st1" d="M51.7,3.6c0.6,0.2,1.1,0.3,1.7,0.6c0.1,0.1,0.5,0.1,0.4,0.3c0,2.8-0.1,5.5-0.2,8.2c-0.1,2.4,0,4.7-0.1,7.1
			c-0.1,3.4-0.1,6.9-0.2,10.4c-0.1,2-0.1,4.4-0.1,6.5c0,0.7,0,1.4,0,2c-0.2-2.1-0.1-4.2-0.3-6.3c-0.1-1.3-0.1-2.6-0.1-3.9
			c-0.1-1.6-0.2-3.1-0.2-4.7c-0.1-2.1-0.2-4.1-0.2-6.2c-0.1-1.8-0.1-3.6-0.2-5.5c-0.1-1.5-0.1-2.9-0.2-4.4
			C51.8,6.3,51.7,4.9,51.7,3.6L51.7,3.6z"/>
		<path class="st1" d="M53.6,42.9c-0.8-0.9-2.1-1.4-3.3-1.9c-1.4-0.4-2.9-0.8-4.4-1c-0.1,0-1-0.1-2.7-0.2c-1.3-0.1-2.6-0.1-3.9,0
			c-2.2,0.1-4.6,0.5-6.7,1.2c0,0-0.1,0.1,0,0c0,0.1,0.4-0.2,0,0c-1.2,0.4-2.5,1-3.3,2c-0.1,0.2-0.3,0.4-0.2,0.6
			c1.4-1.1,3.5-1.6,5.2-2c0.5,0,0.9-0.2,1.3-0.2c2.8-0.4,5.5-0.5,8.3-0.4c0.6,0,1.2,0.2,1.8,0.2c0.1,0.1,0.1,0.1,0.2,0
			c1.7,0.2,3.4,0.5,5,1c1.1,0.3,2.2,0.8,3.1,1.5C54.1,43.6,53.8,43.2,53.6,42.9z"/>
		<path class="st1" d="M44.7,46.9c1,0.1,2,0.1,2.9,0.3c1.4,0.2,2.8,0.5,4.2,0.9c1.1,0.4,2.2,0.8,3.1,1.6c0.2,0.2,0.4,0.5,0.3,0.8
			c-0.2,0.6-0.8,1-1.3,1.4c-1.4,0.8-3,1.3-4.5,1.7c-1.7,0.4-3.4,0.7-5.2,0.8c-0.8,0.1-1.6,0.1-2.4,0.1c-1.1,0-2.3,0-3.4-0.1
			c-2-0.1-4.1-0.5-6-0.9c-0.5-0.1,1,0.2,0.1,0c0.2,0-0.8-0.2-1.4-0.4c0.4,0.1-0.8-0.2-1.2-0.3c0.8,0.2,1.6,0.4,2.4,0.5
			c0.8,0.1,1.7,0.2,2.5,0.2c2.7,0.1,5.3,0.2,8,0c0.6,0,1.3,0,1.9-0.1c1-0.1,2-0.2,2.9-0.4c1.5-0.3,3.3-0.7,4.6-1.4
			c0.2-0.2,0.4-0.3,0.4-0.6c-0.1-0.4-0.5-0.7-0.9-0.9c-1.3-0.6-2.5-0.9-3.9-1.2c-1.5-0.3-3.1-0.4-4.6-0.5c-2.6-0.1-5.1-0.1-7.7,0.3
			c-1.9,0.3-3.8,0.6-5.7,1.3c-0.3,0.1-0.7,0.3-1,0.4c1.4-1.2,3.4-1.8,5.2-2.3c1.8-0.4,3.6-0.8,5.4-0.9
			C41.1,46.8,42.9,46.8,44.7,46.9L44.7,46.9z"/>
	</g>
	<g>
		<path class="st2" d="M11.3,69.3c0.1,0,0.1,0,0.2,0c1.2,0,2.3,0,3.5,0c0.6,0,1.2,0.1,1.7,0.4c1.3,0.7,1.4,2.5,0.2,3.4
			c-0.1,0.1-0.2,0.1-0.3,0.2c0.2,0.1,0.4,0.2,0.6,0.3c0.7,0.4,1,1.1,1,1.9c0,0.8-0.5,1.4-1.2,1.8c-0.5,0.2-1,0.4-1.6,0.4
			c-1.3,0-2.7,0-4,0c0,0-0.1,0-0.1,0C11.3,74.8,11.3,72.1,11.3,69.3z M12.7,76.3c0,0,0.1,0,0.1,0c0.8,0,1.7,0,2.5,0
			c0.3,0,0.5-0.1,0.8-0.2c0.4-0.2,0.6-0.5,0.6-1c0-0.5-0.3-0.8-0.7-0.9c-0.3-0.1-0.6-0.2-1-0.2c-0.6,0-1.3,0-1.9,0
			c-0.1,0-0.3,0-0.4,0C12.7,74.8,12.7,75.5,12.7,76.3z M12.7,70.7c0,0.7,0,1.4,0,2.1c0,0,0.1,0,0.1,0c0.6,0,1.3,0,1.9,0
			c0.3,0,0.7-0.1,1-0.2c0.4-0.2,0.5-0.5,0.5-0.9c0-0.4-0.2-0.7-0.6-0.9c-0.1-0.1-0.3-0.1-0.4-0.1C14.4,70.7,13.6,70.7,12.7,70.7z"/>
		<path class="st2" d="M57.5,74.7c0,1,0,1.9,0,2.9c-0.5,0-1,0-1.4,0c0-2.7,0-5.5,0-8.2c0.1,0,0.1,0,0.2,0c1.2,0,2.3,0,3.5,0
			c0.7,0,1.4,0.1,2,0.5c0.8,0.5,1.1,1.3,1.1,2.2c0,1.2-0.7,2-1.8,2.4c0,0-0.1,0-0.1,0c0,0,0,0,0,0c0.7,1,1.5,2,2.2,3.1
			c-0.1,0-0.1,0-0.2,0c-0.5,0-0.9,0-1.4,0c-0.1,0-0.2,0-0.3-0.1c-0.6-0.9-1.2-1.7-1.8-2.6c-0.1-0.1-0.2-0.2-0.3-0.2
			C58.5,74.7,58,74.7,57.5,74.7z M57.5,73.4c0.2,0,0.3,0,0.5,0c0.7,0,1.3,0,2,0c0.5,0,0.9-0.2,1.1-0.7c0.5-0.9,0-1.9-1-2
			c-0.8-0.1-1.7,0-2.6,0c0,0,0,0,0,0C57.5,71.6,57.5,72.5,57.5,73.4z"/>
		<path class="st2" d="M25.3,76.3c0,0.4,0,0.9,0,1.3c-2.1,0-4.1,0-6.2,0c0-2.7,0-5.5,0-8.2c2,0,4,0,6.1,0c0,0.4,0,0.9,0,1.3
			c-1.5,0-3.1,0-4.6,0c0,0.7,0,1.4,0,2.1c1.4,0,2.7,0,4.1,0c0,0.4,0,0.9,0,1.3c-1.4,0-2.7,0-4.1,0c0,0.7,0,1.5,0,2.2
			C22.2,76.3,23.7,76.3,25.3,76.3z"/>
		<path class="st2" d="M10.6,77.6c-0.5,0-0.9,0-1.4,0c-0.1,0-0.2-0.1-0.2-0.1c-0.2-0.6-0.5-1.1-0.7-1.7c-0.1-0.1-0.1-0.2-0.3-0.2
			c-1.2,0-2.3,0-3.5,0c-0.1,0-0.2,0-0.3,0.2c-0.2,0.6-0.5,1.1-0.7,1.6c-0.1,0.1-0.1,0.2-0.3,0.2c-0.4,0-0.9,0-1.3,0
			c0.1-0.1,0.1-0.2,0.1-0.4c1.1-2.6,2.3-5.2,3.4-7.8c0.1-0.1,0.1-0.2,0.3-0.2c0.3,0,0.7,0,1,0c0.1,0,0.2,0.1,0.2,0.1
			C8.2,72.1,9.4,74.8,10.6,77.6C10.6,77.5,10.6,77.6,10.6,77.6z M4.9,74.3c0.9,0,1.9,0,2.8,0c-0.5-1.1-0.9-2.2-1.4-3.3
			C5.8,72.1,5.3,73.2,4.9,74.3z"/>
		<path class="st2" d="M63.7,69.3c0.5,0,1,0,1.5,0c0,0.1,0,0.2,0,0.2c0,1.5,0,2.9,0,4.4c0,0.4,0,0.8,0.2,1.2
			c0.3,0.7,0.8,1.1,1.6,1.2c0.4,0,0.8,0,1.1-0.1c0.8-0.3,1.2-1,1.2-1.8c0-0.3,0-0.5,0-0.8c0-1.4,0-2.7,0-4.1c0-0.1,0-0.2,0-0.3
			c0.5,0,1,0,1.4,0c0,0,0,0.1,0,0.1c0,1.7,0,3.3,0,5c0,1-0.4,1.9-1.2,2.6c-0.4,0.3-0.9,0.5-1.5,0.6c-0.7,0.1-1.4,0.1-2.1-0.1
			c-1.3-0.4-2.1-1.3-2.3-2.7c0-0.3,0-0.5,0-0.8c0-1.5,0-3,0-4.5C63.7,69.5,63.7,69.4,63.7,69.3z"/>
		<path class="st2" d="M76.6,70.6c-1.6,0-3.1,0-4.7,0c0-0.4,0-0.9,0-1.3c2.2,0,4.4,0,6.6,0c0,0.4,0,0.7,0,1c0,0.1-0.1,0.1-0.1,0.2
			c-1.5,1.8-3,3.7-4.5,5.5c-0.1,0.1-0.1,0.1-0.2,0.2c1.6,0,3.2,0,4.8,0c0,0.4,0,0.9,0,1.3c-2.2,0-4.5,0-6.7,0c0-0.3,0-0.7,0-1
			c0-0.1,0.1-0.1,0.1-0.2c1.5-1.9,3.1-3.7,4.6-5.6C76.5,70.8,76.6,70.7,76.6,70.6z"/>
		<path class="st2" d="M54.3,75.4c0.3,0.3,0.6,0.6,0.9,0.9c-0.6,0.7-1.3,1.1-2.2,1.3c-1.3,0.3-2.6,0.2-3.7-0.7
			c-1.3-1-1.8-2.3-1.6-3.8c0.1-1.4,0.8-2.6,2.1-3.3c1.7-1,4.1-0.7,5.4,0.7c-0.3,0.4-0.6,0.7-0.9,1.1c-0.1-0.1-0.3-0.2-0.4-0.3
			c-0.7-0.5-1.4-0.8-2.3-0.7c-1,0.1-1.7,0.7-2.1,1.6c-0.4,1-0.3,2,0.2,2.9c0.8,1.3,2.5,1.7,3.8,0.9C53.7,75.8,54,75.6,54.3,75.4z"/>
		<path class="st2" d="M26.3,69.3c0.5,0,1,0,1.4,0c0,2.3,0,4.6,0,6.9c1.5,0,2.9,0,4.3,0c0,0.4,0,0.9,0,1.3c-1.9,0-3.8,0-5.8,0
			C26.3,74.8,26.3,72.1,26.3,69.3z"/>
		<path class="st2" d="M45.4,77.6c-0.3,0-0.6,0-0.8,0c-0.1,0-0.1-0.1-0.2-0.1c-0.1-0.3-0.2-0.6-0.4-0.9c0-0.1-0.1-0.1-0.2-0.1
			c-0.7,0-1.3,0-2,0c-0.1,0-0.2,0-0.2,0.1c-0.1,0.3-0.2,0.6-0.4,0.9c0,0.1-0.1,0.2-0.2,0.2c-0.2,0-0.5,0-0.7,0c0-0.1,0-0.1,0-0.2
			c0.7-1.5,1.3-3,2-4.6c0.1-0.1,0.1-0.2,0.2-0.2c0.2,0,0.5-0.1,0.6,0c0.1,0.1,0.2,0.4,0.3,0.5c0.6,1.4,1.2,2.7,1.8,4.1
			C45.4,77.5,45.4,77.5,45.4,77.6z M43.7,75.7c-0.3-0.6-0.5-1.2-0.8-1.8c-0.3,0.6-0.5,1.2-0.8,1.8C42.6,75.7,43.1,75.7,43.7,75.7z"
			/>
		<path class="st2" d="M39.6,76.8c0,0.3,0,0.5,0,0.8c-1.1,0-2.2,0-3.4,0c0-1.6,0-3.2,0-4.8c0.3,0,0.6,0,0.9,0c0,1.3,0,2.6,0,4
			C38,76.8,38.8,76.8,39.6,76.8z"/>
		<path class="st3" d="M44.2,66.7c-0.2,0.2-0.3,0.3-0.5,0.5c-0.5,0.5-1.1,0.9-1.7,1.2c-0.3,0.1-0.7,0.2-1,0.2
			c-0.5,0-0.7-0.3-0.5-0.8c0.1-0.2,0.1-0.3,0.2-0.5c-0.2,0.2-0.4,0.4-0.6,0.5c-0.4,0.2-0.7,0.5-1.1,0.7c-0.1,0.1-0.3,0.1-0.5,0.1
			c-0.2,0-0.3-0.1-0.3-0.3c0-0.2,0.1-0.4,0.2-0.5c0.2-0.3,0.5-0.6,0.8-0.9c0-0.1,0.1-0.1,0.1-0.2c0-0.1,0-0.1,0.1-0.2
			c-0.1,0-0.2,0-0.2,0c-0.3,0.2-0.6,0.3-0.9,0.5c-0.6,0.5-1.2,1-1.9,1.5c-0.1,0.1-0.3,0.1-0.4,0.2c-0.2,0-0.3-0.1-0.2-0.3
			c0.2-0.4,0.4-0.7,0.7-1.1c0-0.1,0.1-0.1,0.1-0.2c-0.3,0.2-0.6,0.5-0.8,0.7c-0.6,0.5-1.2,0.9-1.9,1.1c-0.5,0.1-1,0.2-1.5,0.1
			c-1-0.2-1.5-0.9-1.2-1.9c0.2-0.6,0.5-1.2,0.9-1.7c0.3-0.4,0.7-0.7,1.1-1c0.1-0.1,0.1-0.1,0.2-0.1c-0.1-0.3-0.2-0.6-0.3-0.9
			c-0.1-0.7,0.5-1.3,1.3-1.4c0.7,0,1.3,0.2,1.7,0.7c0.1,0.1,0.2,0.1,0.3,0.1c0.5-0.1,1-0.1,1.5,0c0.8,0.2,0.9,0.9,0.4,1.5
			c-0.3,0.3-0.6,0.4-1,0.5c-1,0.3-1.9,0.3-2.9,0c-0.1,0-0.2-0.1-0.3-0.1c-0.1,0-0.2-0.1-0.3-0.2c-0.2,0.2-0.4,0.4-0.6,0.6
			c-0.5,0.6-1,1.3-1.2,2.1c0,0.2-0.1,0.3,0,0.5c0,0.7,0.5,1.1,1.3,1.1c0.9,0,1.6-0.5,2.3-1c0.5-0.4,1-0.9,1.6-1.3
			c0.1-0.1,0.1-0.2,0.2-0.3c1.3-1.7,2.7-3.2,4.2-4.7c0.4-0.3,0.8-0.6,1.2-0.9c0.1-0.1,0.3-0.1,0.5-0.1c0.4,0,0.6,0.2,0.4,0.6
			c-0.1,0.2-0.2,0.4-0.3,0.5c-0.5,0.6-1.1,1.2-1.7,1.7c-1.1,0.9-2.3,1.8-3.4,2.8c-0.3,0.3-0.6,0.6-0.8,1c-0.2,0.2-0.4,0.5-0.5,0.8
			c0.4-0.3,0.7-0.6,1.1-0.9c0.4-0.3,0.7-0.5,1.1-0.7c0.2-0.1,0.4-0.1,0.6-0.1c0.3,0,0.5,0.2,0.3,0.5c-0.1,0.2-0.2,0.4-0.4,0.6
			c-0.2,0.2-0.3,0.4-0.5,0.6c-0.1,0.1-0.1,0.2-0.1,0.2c0,0.1,0,0.1,0,0.2c0.1,0,0.1,0,0.2,0c0.1,0,0.2-0.1,0.2-0.1
			c0.4-0.3,0.8-0.6,1.1-0.9c0.5-0.4,1.1-0.8,1.7-1c0.2-0.1,0.5-0.1,0.7-0.1c0.3,0,0.5,0.3,0.3,0.5c-0.1,0.2-0.2,0.3-0.4,0.4
			c-0.4,0.3-1,0.5-1.5,0.7c-0.2,0.1-0.3,0.3-0.3,0.5c0,0.2,0.2,0.2,0.4,0.2c0.4-0.1,0.8-0.3,1.2-0.5c0.4-0.3,0.7-0.6,1-0.9
			c0.9-0.6,1.5-1.5,2.2-2.3c1-1.3,2.1-2.4,3.3-3.5c0.3-0.2,0.6-0.4,0.9-0.6c0.2-0.1,0.4-0.1,0.5-0.1c0.2,0,0.4,0.1,0.3,0.4
			c0,0.2,0,0.4-0.1,0.5c-0.3,0.4-0.6,0.8-1,1.2c-1.2,1-2.3,2-3.6,3c-1,0.8-1.7,1.9-2.5,2.9c0,0,0,0,0,0.1c0.3-0.1,0.6-0.2,0.8-0.3
			c0.3-0.1,0.5-0.3,0.8-0.5c0.2-0.2,0.5-0.4,0.7-0.5c0,0,0,0,0.1,0.1c-0.1,0.1-0.1,0.2-0.2,0.2c-0.5,0.5-1.2,0.9-1.9,1.1
			c-0.3,0.1-0.5,0.3-0.6,0.7c-0.5,1.4-1.1,2.8-2,4c-0.2,0.3-0.5,0.6-0.8,0.8c-0.1,0.1-0.3,0.2-0.5,0.2c-0.2,0.1-0.4-0.1-0.4-0.3
			c0-0.2,0-0.4,0.1-0.6c0.3-0.9,0.8-1.7,1.3-2.5c0.9-1.3,1.9-2.6,2.9-3.9C44.2,66.8,44.2,66.8,44.2,66.7
			C44.2,66.7,44.2,66.7,44.2,66.7z M33.8,64.3c0.1,0.1,0.2,0.2,0.3,0.2c0.4,0.1,0.8,0.2,1.2,0.3c0.7,0.1,1.4,0,2-0.4
			c0.3-0.2,0.5-0.4,0.6-0.7c0.1-0.4,0-0.8-0.5-0.9c-0.4-0.1-0.8-0.1-1.3,0.1c0.1,0.4,0.3,0.7,0.2,1.1c-0.1-0.4-0.2-0.7-0.4-1
			C35.1,63.3,34.4,63.7,33.8,64.3z M38.2,65.6C38.3,65.6,38.3,65.6,38.2,65.6C38.3,65.6,38.3,65.6,38.2,65.6
			c0.9-0.7,1.8-1.3,2.6-2.1c0.7-0.6,1.4-1.3,2-2c0.1-0.1,0.2-0.4,0.3-0.5c0.1-0.1,0.1-0.3,0-0.4c-0.1-0.1-0.3,0-0.4,0
			c-0.2,0.1-0.5,0.3-0.7,0.5c-0.7,0.7-1.3,1.4-1.9,2.1C39.5,64,38.9,64.8,38.2,65.6z M45.8,65.6C45.8,65.6,45.8,65.6,45.8,65.6
			C45.9,65.6,45.9,65.6,45.8,65.6c1.2-0.9,2.2-1.9,3.3-2.8c0.5-0.4,0.9-0.9,1.3-1.4c0.1-0.1,0.2-0.3,0.2-0.5
			c0.1-0.2-0.1-0.4-0.3-0.3c-0.1,0-0.1,0.1-0.2,0.1c-0.2,0.2-0.5,0.3-0.6,0.5c-0.9,1-1.8,2-2.7,3C46.5,64.7,46.1,65.2,45.8,65.6z
			 M43.4,68.9C43.3,68.9,43.3,68.9,43.4,68.9c-0.1,0-0.1,0-0.1,0.1c-1,1.3-1.9,2.6-2.7,4c-0.1,0.2-0.2,0.4-0.3,0.5
			c0,0.1,0,0.2,0,0.3c0.1,0,0.2,0,0.2-0.1c0.2-0.1,0.4-0.3,0.5-0.5c1-1.1,1.6-2.5,2.1-3.9C43.2,69.2,43.3,69.1,43.4,68.9z
			 M35.8,62.8c-0.4-0.5-1.2-0.8-1.8-0.7c-0.4,0.1-0.7,0.4-0.8,0.8c-0.1,0.4,0,0.8,0.2,1C34.2,63.5,35,63.2,35.8,62.8z M41.3,67.5
			c0.5-0.2,1-0.4,1.4-0.9c0.1-0.1,0.2-0.3,0.1-0.4c-0.1-0.1-0.3,0-0.4,0.1C41.9,66.6,41.6,67,41.3,67.5z"/>
	</g>
</g>
<g id="Black_Logo" class="st4">
	<g class="st5">
		<path d="M41.5,17.5c-6.9,16.1-13.6,32-20.4,48c2.2,0,4.3,0,6.3,0c0.3,0,0.6-0.3,0.8-0.6c2.6-5.7,5.1-11.4,7.6-17.2
			c1.9-4.4,3.6-8.9,5.3-13.3c0.1-0.3,0.3-0.6,0.5-1c0.2,0.6,0.4,0.9,0.6,1.3c3.4,8.1,6.7,16.2,10.1,24.3c0.8,2,1.7,3.9,2.6,5.8
			c0.1,0.3,0.5,0.7,0.7,0.7c2.1,0.1,4.1,0,6.4,0C55.1,49.5,48.3,33.7,41.5,17.5z"/>
	</g>
	<g class="st5">
		<path d="M41.9,18.1c0-5.3,0.2-10.5,0.3-15.9c-0.6,0-1.3,0-1.9,0c0,2.5,0.2,4.9,0.2,7.4c0.2,2.3,0.2,4.6,0.3,6.9
			c0.1,1.1,0.1,2.3,0.1,3.4c0.1,2.1,0.2,4.1,0.2,6.2c0.2,2.2,0.2,4.4,0.3,6.5c0,0,0.1,0,0.1,0C41.7,27.9,41.7,22.9,41.9,18.1z"/>
		<path d="M46,2.5c0.7,0,1.3,0.2,2,0.2l0,0.1c-0.1,3.5-0.1,6.8-0.2,10.3c0,2.5,0,4.9-0.2,7.3c-0.1,3.3-0.1,6.7-0.2,10
			c0,1.4-0.1,2.8-0.1,4.2c-0.1,0.5,0,1.4-0.1,1.9c0-0.5,0-1.1,0-1.6c-0.1-2-0.1-4.1-0.3-6.1c0-2-0.1-4-0.2-6c0-1.3,0-2.4-0.1-3.7
			c-0.1-2.2-0.1-4.5-0.3-6.7c0-2.4-0.2-4.7-0.3-7.1c0-0.8-0.1-1.7-0.1-2.5C45.9,2.7,45.9,2.6,46,2.5L46,2.5z"/>
		<path d="M36.5,2.6c-0.1,2.7-0.1,5.3-0.2,8c-0.1,3.8-0.2,7.5-0.2,11.3c-0.1,2.4-0.2,4.9-0.2,7.3c0,2.4-0.1,4.8-0.2,7.2
			c-0.1-0.1-0.1-0.2-0.1-0.3c0-1.4-0.1-2.8-0.2-4.2c-0.1-1.4-0.1-2.9-0.2-4.3c-0.1-0.9-0.1-1.9-0.1-2.8c-0.1-1.3-0.1-2.5-0.2-3.8
			c0-2.2-0.2-4.4-0.2-6.6c0-1.8-0.2-3.6-0.2-5.4c-0.1-1.8-0.2-3.6-0.2-5.4c0-0.2-0.1-0.5,0-0.7C35,2.8,35.9,2.6,36.5,2.6L36.5,2.6z"
			/>
		<path d="M30.7,3.7c0.1,0.2,0,0.4,0,0.6c0,1.7-0.1,3.4-0.1,5.1c-0.1,5.7-0.3,10.5-0.3,16.3c-0.2,4.4-0.1,8.5-0.3,12.9
			c-0.1-1.3,0-2.6-0.2-3.9c-0.1-2.1-0.1-4.1-0.2-6.2c-0.1-1.4-0.1-2.8-0.2-4.2c-0.1-2.1-0.1-4.1-0.3-6.2C29,16,29,14,28.9,11.9
			c0-2.5-0.2-5-0.3-7.5l0-0.1C29.3,4.1,30,3.8,30.7,3.7L30.7,3.7z"/>
		<path d="M51.7,3.6c0.6,0.2,1.1,0.3,1.7,0.6c0.1,0.1,0.5,0.1,0.4,0.3c0,2.8-0.1,5.5-0.2,8.2c-0.1,2.4,0,4.7-0.1,7.1
			c-0.1,3.4-0.1,6.9-0.2,10.4c-0.1,2-0.1,4.4-0.1,6.5c0,0.7,0,1.4,0,2c-0.2-2.1-0.1-4.2-0.3-6.3c-0.1-1.3-0.1-2.6-0.1-3.9
			c-0.1-1.6-0.2-3.1-0.2-4.7c-0.1-2.1-0.2-4.1-0.2-6.2c-0.1-1.8-0.1-3.6-0.2-5.5c-0.1-1.5-0.1-2.9-0.2-4.4
			C51.8,6.3,51.7,4.9,51.7,3.6L51.7,3.6z"/>
		<path d="M53.6,42.9c-0.8-0.9-2.1-1.4-3.3-1.9c-1.4-0.4-2.9-0.8-4.4-1c-0.1,0-1-0.1-2.7-0.2c-1.3-0.1-2.6-0.1-3.9,0
			c-2.2,0.1-4.6,0.5-6.7,1.2c0,0-0.1,0.1,0,0c0,0.1,0.4-0.2,0,0c-1.2,0.4-2.5,1-3.3,2c-0.1,0.2-0.3,0.4-0.2,0.6
			c1.4-1.1,3.5-1.6,5.2-2c0.5,0,0.9-0.2,1.3-0.2c2.8-0.4,5.5-0.5,8.3-0.4c0.6,0,1.2,0.2,1.8,0.2c0.1,0.1,0.1,0.1,0.2,0
			c1.7,0.2,3.4,0.5,5,1c1.1,0.3,2.2,0.8,3.1,1.5C54.1,43.6,53.8,43.2,53.6,42.9z"/>
		<path d="M44.7,46.9c1,0.1,2,0.1,2.9,0.3c1.4,0.2,2.8,0.5,4.2,0.9c1.1,0.4,2.2,0.8,3.1,1.6c0.2,0.2,0.4,0.5,0.3,0.8
			c-0.2,0.6-0.8,1-1.3,1.4c-1.4,0.8-3,1.3-4.5,1.7c-1.7,0.4-3.4,0.7-5.2,0.8c-0.8,0.1-1.6,0.1-2.4,0.1c-1.1,0-2.3,0-3.4-0.1
			c-2-0.1-4.1-0.5-6-0.9c-0.5-0.1,1,0.2,0.1,0c0.2,0-0.8-0.2-1.4-0.4c0.4,0.1-0.8-0.2-1.2-0.3c0.8,0.2,1.6,0.4,2.4,0.5
			c0.8,0.1,1.7,0.2,2.5,0.2c2.7,0.1,5.3,0.2,8,0c0.6,0,1.3,0,1.9-0.1c1-0.1,2-0.2,2.9-0.4c1.5-0.3,3.3-0.7,4.6-1.4
			c0.2-0.2,0.4-0.3,0.4-0.6c-0.1-0.4-0.5-0.7-0.9-0.9c-1.3-0.6-2.5-0.9-3.9-1.2c-1.5-0.3-3.1-0.4-4.6-0.5c-2.6-0.1-5.1-0.1-7.7,0.3
			c-1.9,0.3-3.8,0.6-5.7,1.3c-0.3,0.1-0.7,0.3-1,0.4c1.4-1.2,3.4-1.8,5.2-2.3c1.8-0.4,3.6-0.8,5.4-0.9
			C41.1,46.8,42.9,46.8,44.7,46.9L44.7,46.9z"/>
	</g>
	<g class="st5">
		<path d="M11.3,69.3c0.1,0,0.1,0,0.2,0c1.2,0,2.3,0,3.5,0c0.6,0,1.2,0.1,1.7,0.4c1.3,0.7,1.4,2.5,0.2,3.4c-0.1,0.1-0.2,0.1-0.3,0.2
			c0.2,0.1,0.4,0.2,0.6,0.3c0.7,0.4,1,1.1,1,1.9c0,0.8-0.5,1.4-1.2,1.8c-0.5,0.2-1,0.4-1.6,0.4c-1.3,0-2.7,0-4,0c0,0-0.1,0-0.1,0
			C11.3,74.8,11.3,72.1,11.3,69.3z M12.7,76.3c0,0,0.1,0,0.1,0c0.8,0,1.7,0,2.5,0c0.3,0,0.5-0.1,0.8-0.2c0.4-0.2,0.6-0.5,0.6-1
			c0-0.5-0.3-0.8-0.7-0.9c-0.3-0.1-0.6-0.2-1-0.2c-0.6,0-1.3,0-1.9,0c-0.1,0-0.3,0-0.4,0C12.7,74.8,12.7,75.5,12.7,76.3z M12.7,70.7
			c0,0.7,0,1.4,0,2.1c0,0,0.1,0,0.1,0c0.6,0,1.3,0,1.9,0c0.3,0,0.7-0.1,1-0.2c0.4-0.2,0.5-0.5,0.5-0.9c0-0.4-0.2-0.7-0.6-0.9
			c-0.1-0.1-0.3-0.1-0.4-0.1C14.4,70.7,13.6,70.7,12.7,70.7z"/>
		<path d="M57.5,74.7c0,1,0,1.9,0,2.9c-0.5,0-1,0-1.4,0c0-2.7,0-5.5,0-8.2c0.1,0,0.1,0,0.2,0c1.2,0,2.3,0,3.5,0c0.7,0,1.4,0.1,2,0.5
			c0.8,0.5,1.1,1.3,1.1,2.2c0,1.2-0.7,2-1.8,2.4c0,0-0.1,0-0.1,0c0,0,0,0,0,0c0.7,1,1.5,2,2.2,3.1c-0.1,0-0.1,0-0.2,0
			c-0.5,0-0.9,0-1.4,0c-0.1,0-0.2,0-0.3-0.1c-0.6-0.9-1.2-1.7-1.8-2.6c-0.1-0.1-0.2-0.2-0.3-0.2C58.5,74.7,58,74.7,57.5,74.7z
			 M57.5,73.4c0.2,0,0.3,0,0.5,0c0.7,0,1.3,0,2,0c0.5,0,0.9-0.2,1.1-0.7c0.5-0.9,0-1.9-1-2c-0.8-0.1-1.7,0-2.6,0c0,0,0,0,0,0
			C57.5,71.6,57.5,72.5,57.5,73.4z"/>
		<path d="M25.3,76.3c0,0.4,0,0.9,0,1.3c-2.1,0-4.1,0-6.2,0c0-2.7,0-5.5,0-8.2c2,0,4,0,6.1,0c0,0.4,0,0.9,0,1.3c-1.5,0-3.1,0-4.6,0
			c0,0.7,0,1.4,0,2.1c1.4,0,2.7,0,4.1,0c0,0.4,0,0.9,0,1.3c-1.4,0-2.7,0-4.1,0c0,0.7,0,1.5,0,2.2C22.2,76.3,23.7,76.3,25.3,76.3z"/>
		<path d="M10.6,77.6c-0.5,0-0.9,0-1.4,0c-0.1,0-0.2-0.1-0.2-0.1c-0.2-0.6-0.5-1.1-0.7-1.7c-0.1-0.1-0.1-0.2-0.3-0.2
			c-1.2,0-2.3,0-3.5,0c-0.1,0-0.2,0-0.3,0.2c-0.2,0.6-0.5,1.1-0.7,1.6c-0.1,0.1-0.1,0.2-0.3,0.2c-0.4,0-0.9,0-1.3,0
			c0.1-0.1,0.1-0.2,0.1-0.4c1.1-2.6,2.3-5.2,3.4-7.8c0.1-0.1,0.1-0.2,0.3-0.2c0.3,0,0.7,0,1,0c0.1,0,0.2,0.1,0.2,0.1
			C8.2,72.1,9.4,74.8,10.6,77.6C10.6,77.5,10.6,77.6,10.6,77.6z M4.9,74.3c0.9,0,1.9,0,2.8,0c-0.5-1.1-0.9-2.2-1.4-3.3
			C5.8,72.1,5.3,73.2,4.9,74.3z"/>
		<path d="M63.7,69.3c0.5,0,1,0,1.5,0c0,0.1,0,0.2,0,0.2c0,1.5,0,2.9,0,4.4c0,0.4,0,0.8,0.2,1.2c0.3,0.7,0.8,1.1,1.6,1.2
			c0.4,0,0.8,0,1.1-0.1c0.8-0.3,1.2-1,1.2-1.8c0-0.3,0-0.5,0-0.8c0-1.4,0-2.7,0-4.1c0-0.1,0-0.2,0-0.3c0.5,0,1,0,1.4,0
			c0,0,0,0.1,0,0.1c0,1.7,0,3.3,0,5c0,1-0.4,1.9-1.2,2.6c-0.4,0.3-0.9,0.5-1.5,0.6c-0.7,0.1-1.4,0.1-2.1-0.1
			c-1.3-0.4-2.1-1.3-2.3-2.7c0-0.3,0-0.5,0-0.8c0-1.5,0-3,0-4.5C63.7,69.5,63.7,69.4,63.7,69.3z"/>
		<path d="M76.6,70.6c-1.6,0-3.1,0-4.7,0c0-0.4,0-0.9,0-1.3c2.2,0,4.4,0,6.6,0c0,0.4,0,0.7,0,1c0,0.1-0.1,0.1-0.1,0.2
			c-1.5,1.8-3,3.7-4.5,5.5c-0.1,0.1-0.1,0.1-0.2,0.2c1.6,0,3.2,0,4.8,0c0,0.4,0,0.9,0,1.3c-2.2,0-4.5,0-6.7,0c0-0.3,0-0.7,0-1
			c0-0.1,0.1-0.1,0.1-0.2c1.5-1.9,3.1-3.7,4.6-5.6C76.5,70.8,76.6,70.7,76.6,70.6z"/>
		<path d="M54.3,75.4c0.3,0.3,0.6,0.6,0.9,0.9c-0.6,0.7-1.3,1.1-2.2,1.3c-1.3,0.3-2.6,0.2-3.7-0.7c-1.3-1-1.8-2.3-1.6-3.8
			c0.1-1.4,0.8-2.6,2.1-3.3c1.7-1,4.1-0.7,5.4,0.7c-0.3,0.4-0.6,0.7-0.9,1.1c-0.1-0.1-0.3-0.2-0.4-0.3c-0.7-0.5-1.4-0.8-2.3-0.7
			c-1,0.1-1.7,0.7-2.1,1.6c-0.4,1-0.3,2,0.2,2.9c0.8,1.3,2.5,1.7,3.8,0.9C53.7,75.8,54,75.6,54.3,75.4z"/>
		<path d="M26.3,69.3c0.5,0,1,0,1.4,0c0,2.3,0,4.6,0,6.9c1.5,0,2.9,0,4.3,0c0,0.4,0,0.9,0,1.3c-1.9,0-3.8,0-5.8,0
			C26.3,74.8,26.3,72.1,26.3,69.3z"/>
		<path d="M45.4,77.6c-0.3,0-0.6,0-0.8,0c-0.1,0-0.1-0.1-0.2-0.1c-0.1-0.3-0.2-0.6-0.4-0.9c0-0.1-0.1-0.1-0.2-0.1c-0.7,0-1.3,0-2,0
			c-0.1,0-0.2,0-0.2,0.1c-0.1,0.3-0.2,0.6-0.4,0.9c0,0.1-0.1,0.2-0.2,0.2c-0.2,0-0.5,0-0.7,0c0-0.1,0-0.1,0-0.2c0.7-1.5,1.3-3,2-4.6
			c0.1-0.1,0.1-0.2,0.2-0.2c0.2,0,0.5-0.1,0.6,0c0.1,0.1,0.2,0.4,0.3,0.5c0.6,1.4,1.2,2.7,1.8,4.1C45.4,77.5,45.4,77.5,45.4,77.6z
			 M43.7,75.7c-0.3-0.6-0.5-1.2-0.8-1.8c-0.3,0.6-0.5,1.2-0.8,1.8C42.6,75.7,43.1,75.7,43.7,75.7z"/>
		<path d="M39.6,76.8c0,0.3,0,0.5,0,0.8c-1.1,0-2.2,0-3.4,0c0-1.6,0-3.2,0-4.8c0.3,0,0.6,0,0.9,0c0,1.3,0,2.6,0,4
			C38,76.8,38.8,76.8,39.6,76.8z"/>
		<path d="M44.2,66.7c-0.2,0.2-0.3,0.3-0.5,0.5c-0.5,0.5-1.1,0.9-1.7,1.2c-0.3,0.1-0.7,0.2-1,0.2c-0.5,0-0.7-0.3-0.5-0.8
			c0.1-0.2,0.1-0.3,0.2-0.5c-0.2,0.2-0.4,0.4-0.6,0.5c-0.4,0.2-0.7,0.5-1.1,0.7c-0.1,0.1-0.3,0.1-0.5,0.1c-0.2,0-0.3-0.1-0.3-0.3
			c0-0.2,0.1-0.4,0.2-0.5c0.2-0.3,0.5-0.6,0.8-0.9c0-0.1,0.1-0.1,0.1-0.2c0-0.1,0-0.1,0.1-0.2c-0.1,0-0.2,0-0.2,0
			c-0.3,0.2-0.6,0.3-0.9,0.5c-0.6,0.5-1.2,1-1.9,1.5c-0.1,0.1-0.3,0.1-0.4,0.2c-0.2,0-0.3-0.1-0.2-0.3c0.2-0.4,0.4-0.7,0.7-1.1
			c0-0.1,0.1-0.1,0.1-0.2c-0.3,0.2-0.6,0.5-0.8,0.7c-0.6,0.5-1.2,0.9-1.9,1.1c-0.5,0.1-1,0.2-1.5,0.1c-1-0.2-1.5-0.9-1.2-1.9
			c0.2-0.6,0.5-1.2,0.9-1.7c0.3-0.4,0.7-0.7,1.1-1c0.1-0.1,0.1-0.1,0.2-0.1c-0.1-0.3-0.2-0.6-0.3-0.9c-0.1-0.7,0.5-1.3,1.3-1.4
			c0.7,0,1.3,0.2,1.7,0.7c0.1,0.1,0.2,0.1,0.3,0.1c0.5-0.1,1-0.1,1.5,0c0.8,0.2,0.9,0.9,0.4,1.5c-0.3,0.3-0.6,0.4-1,0.5
			c-1,0.3-1.9,0.3-2.9,0c-0.1,0-0.2-0.1-0.3-0.1c-0.1,0-0.2-0.1-0.3-0.2c-0.2,0.2-0.4,0.4-0.6,0.6c-0.5,0.6-1,1.3-1.2,2.1
			c0,0.2-0.1,0.3,0,0.5c0,0.7,0.5,1.1,1.3,1.1c0.9,0,1.6-0.5,2.3-1c0.5-0.4,1-0.9,1.6-1.3c0.1-0.1,0.1-0.2,0.2-0.3
			c1.3-1.7,2.7-3.2,4.2-4.7c0.4-0.3,0.8-0.6,1.2-0.9c0.1-0.1,0.3-0.1,0.5-0.1c0.4,0,0.6,0.2,0.4,0.6c-0.1,0.2-0.2,0.4-0.3,0.5
			c-0.5,0.6-1.1,1.2-1.7,1.7c-1.1,0.9-2.3,1.8-3.4,2.8c-0.3,0.3-0.6,0.6-0.8,1c-0.2,0.2-0.4,0.5-0.5,0.8c0.4-0.3,0.7-0.6,1.1-0.9
			c0.4-0.3,0.7-0.5,1.1-0.7c0.2-0.1,0.4-0.1,0.6-0.1c0.3,0,0.5,0.2,0.3,0.5c-0.1,0.2-0.2,0.4-0.4,0.6c-0.2,0.2-0.3,0.4-0.5,0.6
			c-0.1,0.1-0.1,0.2-0.1,0.2c0,0.1,0,0.1,0,0.2c0.1,0,0.1,0,0.2,0c0.1,0,0.2-0.1,0.2-0.1c0.4-0.3,0.8-0.6,1.1-0.9
			c0.5-0.4,1.1-0.8,1.7-1c0.2-0.1,0.5-0.1,0.7-0.1c0.3,0,0.5,0.3,0.3,0.5c-0.1,0.2-0.2,0.3-0.4,0.4c-0.4,0.3-1,0.5-1.5,0.7
			c-0.2,0.1-0.3,0.3-0.3,0.5c0,0.2,0.2,0.2,0.4,0.2c0.4-0.1,0.8-0.3,1.2-0.5c0.4-0.3,0.7-0.6,1-0.9c0.9-0.6,1.5-1.5,2.2-2.3
			c1-1.3,2.1-2.4,3.3-3.5c0.3-0.2,0.6-0.4,0.9-0.6c0.2-0.1,0.4-0.1,0.5-0.1c0.2,0,0.4,0.1,0.3,0.4c0,0.2,0,0.4-0.1,0.5
			c-0.3,0.4-0.6,0.8-1,1.2c-1.2,1-2.3,2-3.6,3c-1,0.8-1.7,1.9-2.5,2.9c0,0,0,0,0,0.1c0.3-0.1,0.6-0.2,0.8-0.3
			c0.3-0.1,0.5-0.3,0.8-0.5c0.2-0.2,0.5-0.4,0.7-0.5c0,0,0,0,0.1,0.1c-0.1,0.1-0.1,0.2-0.2,0.2c-0.5,0.5-1.2,0.9-1.9,1.1
			c-0.3,0.1-0.5,0.3-0.6,0.7c-0.5,1.4-1.1,2.8-2,4c-0.2,0.3-0.5,0.6-0.8,0.8c-0.1,0.1-0.3,0.2-0.5,0.2c-0.2,0.1-0.4-0.1-0.4-0.3
			c0-0.2,0-0.4,0.1-0.6c0.3-0.9,0.8-1.7,1.3-2.5c0.9-1.3,1.9-2.6,2.9-3.9C44.2,66.8,44.2,66.8,44.2,66.7
			C44.2,66.7,44.2,66.7,44.2,66.7z M33.8,64.3c0.1,0.1,0.2,0.2,0.3,0.2c0.4,0.1,0.8,0.2,1.2,0.3c0.7,0.1,1.4,0,2-0.4
			c0.3-0.2,0.5-0.4,0.6-0.7c0.1-0.4,0-0.8-0.5-0.9c-0.4-0.1-0.8-0.1-1.3,0.1c0.1,0.4,0.3,0.7,0.2,1.1c-0.1-0.4-0.2-0.7-0.4-1
			C35.1,63.3,34.4,63.7,33.8,64.3z M38.2,65.6C38.3,65.6,38.3,65.6,38.2,65.6C38.3,65.6,38.3,65.6,38.2,65.6
			c0.9-0.7,1.8-1.3,2.6-2.1c0.7-0.6,1.4-1.3,2-2c0.1-0.1,0.2-0.4,0.3-0.5c0.1-0.1,0.1-0.3,0-0.4c-0.1-0.1-0.3,0-0.4,0
			c-0.2,0.1-0.5,0.3-0.7,0.5c-0.7,0.7-1.3,1.4-1.9,2.1C39.5,64,38.9,64.8,38.2,65.6z M45.8,65.6C45.8,65.6,45.8,65.6,45.8,65.6
			C45.9,65.6,45.9,65.6,45.8,65.6c1.2-0.9,2.2-1.9,3.3-2.8c0.5-0.4,0.9-0.9,1.3-1.4c0.1-0.1,0.2-0.3,0.2-0.5
			c0.1-0.2-0.1-0.4-0.3-0.3c-0.1,0-0.1,0.1-0.2,0.1c-0.2,0.2-0.5,0.3-0.6,0.5c-0.9,1-1.8,2-2.7,3C46.5,64.7,46.1,65.2,45.8,65.6z
			 M43.4,68.9C43.3,68.9,43.3,68.9,43.4,68.9c-0.1,0-0.1,0-0.1,0.1c-1,1.3-1.9,2.6-2.7,4c-0.1,0.2-0.2,0.4-0.3,0.5
			c0,0.1,0,0.2,0,0.3c0.1,0,0.2,0,0.2-0.1c0.2-0.1,0.4-0.3,0.5-0.5c1-1.1,1.6-2.5,2.1-3.9C43.2,69.2,43.3,69.1,43.4,68.9z
			 M35.8,62.8c-0.4-0.5-1.2-0.8-1.8-0.7c-0.4,0.1-0.7,0.4-0.8,0.8c-0.1,0.4,0,0.8,0.2,1C34.2,63.5,35,63.2,35.8,62.8z M41.3,67.5
			c0.5-0.2,1-0.4,1.4-0.9c0.1-0.1,0.2-0.3,0.1-0.4c-0.1-0.1-0.3,0-0.4,0.1C41.9,66.6,41.6,67,41.3,67.5z"/>
	</g>
</g>
<g id="White_Logo" class="st4">
	<g class="st5">
		<path class="st6" d="M41.5,17.5c-6.9,16.1-13.6,32-20.4,48c2.2,0,4.3,0,6.3,0c0.3,0,0.6-0.3,0.8-0.6c2.6-5.7,5.1-11.4,7.6-17.2
			c1.9-4.4,3.6-8.9,5.3-13.3c0.1-0.3,0.3-0.6,0.5-1c0.2,0.6,0.4,0.9,0.6,1.3c3.4,8.1,6.7,16.2,10.1,24.3c0.8,2,1.7,3.9,2.6,5.8
			c0.1,0.3,0.5,0.7,0.7,0.7c2.1,0.1,4.1,0,6.4,0C55.1,49.5,48.3,33.7,41.5,17.5z"/>
	</g>
	<g class="st5">
		<path class="st6" d="M41.9,18.1c0-5.3,0.2-10.5,0.3-15.9c-0.6,0-1.3,0-1.9,0c0,2.5,0.2,4.9,0.2,7.4c0.2,2.3,0.2,4.6,0.3,6.9
			c0.1,1.1,0.1,2.3,0.1,3.4c0.1,2.1,0.2,4.1,0.2,6.2c0.2,2.2,0.2,4.4,0.3,6.5c0,0,0.1,0,0.1,0C41.7,27.9,41.7,22.9,41.9,18.1z"/>
		<path class="st6" d="M46,2.5c0.7,0,1.3,0.2,2,0.2l0,0.1c-0.1,3.5-0.1,6.8-0.2,10.3c0,2.5,0,4.9-0.2,7.3c-0.1,3.3-0.1,6.7-0.2,10
			c0,1.4-0.1,2.8-0.1,4.2c-0.1,0.5,0,1.4-0.1,1.9c0-0.5,0-1.1,0-1.6c-0.1-2-0.1-4.1-0.3-6.1c0-2-0.1-4-0.2-6c0-1.3,0-2.4-0.1-3.7
			c-0.1-2.2-0.1-4.5-0.3-6.7c0-2.4-0.2-4.7-0.3-7.1c0-0.8-0.1-1.7-0.1-2.5C45.9,2.7,45.9,2.6,46,2.5L46,2.5z"/>
		<path class="st6" d="M36.5,2.6c-0.1,2.7-0.1,5.3-0.2,8c-0.1,3.8-0.2,7.5-0.2,11.3c-0.1,2.4-0.2,4.9-0.2,7.3c0,2.4-0.1,4.8-0.2,7.2
			c-0.1-0.1-0.1-0.2-0.1-0.3c0-1.4-0.1-2.8-0.2-4.2c-0.1-1.4-0.1-2.9-0.2-4.3c-0.1-0.9-0.1-1.9-0.1-2.8c-0.1-1.3-0.1-2.5-0.2-3.8
			c0-2.2-0.2-4.4-0.2-6.6c0-1.8-0.2-3.6-0.2-5.4c-0.1-1.8-0.2-3.6-0.2-5.4c0-0.2-0.1-0.5,0-0.7C35,2.8,35.9,2.6,36.5,2.6L36.5,2.6z"
			/>
		<path class="st6" d="M30.7,3.7c0.1,0.2,0,0.4,0,0.6c0,1.7-0.1,3.4-0.1,5.1c-0.1,5.7-0.3,10.5-0.3,16.3c-0.2,4.4-0.1,8.5-0.3,12.9
			c-0.1-1.3,0-2.6-0.2-3.9c-0.1-2.1-0.1-4.1-0.2-6.2c-0.1-1.4-0.1-2.8-0.2-4.2c-0.1-2.1-0.1-4.1-0.3-6.2C29,16,29,14,28.9,11.9
			c0-2.5-0.2-5-0.3-7.5l0-0.1C29.3,4.1,30,3.8,30.7,3.7L30.7,3.7z"/>
		<path class="st6" d="M51.7,3.6c0.6,0.2,1.1,0.3,1.7,0.6c0.1,0.1,0.5,0.1,0.4,0.3c0,2.8-0.1,5.5-0.2,8.2c-0.1,2.4,0,4.7-0.1,7.1
			c-0.1,3.4-0.1,6.9-0.2,10.4c-0.1,2-0.1,4.4-0.1,6.5c0,0.7,0,1.4,0,2c-0.2-2.1-0.1-4.2-0.3-6.3c-0.1-1.3-0.1-2.6-0.1-3.9
			c-0.1-1.6-0.2-3.1-0.2-4.7c-0.1-2.1-0.2-4.1-0.2-6.2c-0.1-1.8-0.1-3.6-0.2-5.5c-0.1-1.5-0.1-2.9-0.2-4.4
			C51.8,6.3,51.7,4.9,51.7,3.6L51.7,3.6z"/>
		<path class="st6" d="M53.6,42.9c-0.8-0.9-2.1-1.4-3.3-1.9c-1.4-0.4-2.9-0.8-4.4-1c-0.1,0-1-0.1-2.7-0.2c-1.3-0.1-2.6-0.1-3.9,0
			c-2.2,0.1-4.6,0.5-6.7,1.2c0,0-0.1,0.1,0,0c0,0.1,0.4-0.2,0,0c-1.2,0.4-2.5,1-3.3,2c-0.1,0.2-0.3,0.4-0.2,0.6
			c1.4-1.1,3.5-1.6,5.2-2c0.5,0,0.9-0.2,1.3-0.2c2.8-0.4,5.5-0.5,8.3-0.4c0.6,0,1.2,0.2,1.8,0.2c0.1,0.1,0.1,0.1,0.2,0
			c1.7,0.2,3.4,0.5,5,1c1.1,0.3,2.2,0.8,3.1,1.5C54.1,43.6,53.8,43.2,53.6,42.9z"/>
		<path class="st6" d="M44.7,46.9c1,0.1,2,0.1,2.9,0.3c1.4,0.2,2.8,0.5,4.2,0.9c1.1,0.4,2.2,0.8,3.1,1.6c0.2,0.2,0.4,0.5,0.3,0.8
			c-0.2,0.6-0.8,1-1.3,1.4c-1.4,0.8-3,1.3-4.5,1.7c-1.7,0.4-3.4,0.7-5.2,0.8c-0.8,0.1-1.6,0.1-2.4,0.1c-1.1,0-2.3,0-3.4-0.1
			c-2-0.1-4.1-0.5-6-0.9c-0.5-0.1,1,0.2,0.1,0c0.2,0-0.8-0.2-1.4-0.4c0.4,0.1-0.8-0.2-1.2-0.3c0.8,0.2,1.6,0.4,2.4,0.5
			c0.8,0.1,1.7,0.2,2.5,0.2c2.7,0.1,5.3,0.2,8,0c0.6,0,1.3,0,1.9-0.1c1-0.1,2-0.2,2.9-0.4c1.5-0.3,3.3-0.7,4.6-1.4
			c0.2-0.2,0.4-0.3,0.4-0.6c-0.1-0.4-0.5-0.7-0.9-0.9c-1.3-0.6-2.5-0.9-3.9-1.2c-1.5-0.3-3.1-0.4-4.6-0.5c-2.6-0.1-5.1-0.1-7.7,0.3
			c-1.9,0.3-3.8,0.6-5.7,1.3c-0.3,0.1-0.7,0.3-1,0.4c1.4-1.2,3.4-1.8,5.2-2.3c1.8-0.4,3.6-0.8,5.4-0.9
			C41.1,46.8,42.9,46.8,44.7,46.9L44.7,46.9z"/>
	</g>
	<g class="st5">
		<path class="st6" d="M11.3,69.3c0.1,0,0.1,0,0.2,0c1.2,0,2.3,0,3.5,0c0.6,0,1.2,0.1,1.7,0.4c1.3,0.7,1.4,2.5,0.2,3.4
			c-0.1,0.1-0.2,0.1-0.3,0.2c0.2,0.1,0.4,0.2,0.6,0.3c0.7,0.4,1,1.1,1,1.9c0,0.8-0.5,1.4-1.2,1.8c-0.5,0.2-1,0.4-1.6,0.4
			c-1.3,0-2.7,0-4,0c0,0-0.1,0-0.1,0C11.3,74.8,11.3,72.1,11.3,69.3z M12.7,76.3c0,0,0.1,0,0.1,0c0.8,0,1.7,0,2.5,0
			c0.3,0,0.5-0.1,0.8-0.2c0.4-0.2,0.6-0.5,0.6-1c0-0.5-0.3-0.8-0.7-0.9c-0.3-0.1-0.6-0.2-1-0.2c-0.6,0-1.3,0-1.9,0
			c-0.1,0-0.3,0-0.4,0C12.7,74.8,12.7,75.5,12.7,76.3z M12.7,70.7c0,0.7,0,1.4,0,2.1c0,0,0.1,0,0.1,0c0.6,0,1.3,0,1.9,0
			c0.3,0,0.7-0.1,1-0.2c0.4-0.2,0.5-0.5,0.5-0.9c0-0.4-0.2-0.7-0.6-0.9c-0.1-0.1-0.3-0.1-0.4-0.1C14.4,70.7,13.6,70.7,12.7,70.7z"/>
		<path class="st6" d="M57.5,74.7c0,1,0,1.9,0,2.9c-0.5,0-1,0-1.4,0c0-2.7,0-5.5,0-8.2c0.1,0,0.1,0,0.2,0c1.2,0,2.3,0,3.5,0
			c0.7,0,1.4,0.1,2,0.5c0.8,0.5,1.1,1.3,1.1,2.2c0,1.2-0.7,2-1.8,2.4c0,0-0.1,0-0.1,0c0,0,0,0,0,0c0.7,1,1.5,2,2.2,3.1
			c-0.1,0-0.1,0-0.2,0c-0.5,0-0.9,0-1.4,0c-0.1,0-0.2,0-0.3-0.1c-0.6-0.9-1.2-1.7-1.8-2.6c-0.1-0.1-0.2-0.2-0.3-0.2
			C58.5,74.7,58,74.7,57.5,74.7z M57.5,73.4c0.2,0,0.3,0,0.5,0c0.7,0,1.3,0,2,0c0.5,0,0.9-0.2,1.1-0.7c0.5-0.9,0-1.9-1-2
			c-0.8-0.1-1.7,0-2.6,0c0,0,0,0,0,0C57.5,71.6,57.5,72.5,57.5,73.4z"/>
		<path class="st6" d="M25.3,76.3c0,0.4,0,0.9,0,1.3c-2.1,0-4.1,0-6.2,0c0-2.7,0-5.5,0-8.2c2,0,4,0,6.1,0c0,0.4,0,0.9,0,1.3
			c-1.5,0-3.1,0-4.6,0c0,0.7,0,1.4,0,2.1c1.4,0,2.7,0,4.1,0c0,0.4,0,0.9,0,1.3c-1.4,0-2.7,0-4.1,0c0,0.7,0,1.5,0,2.2
			C22.2,76.3,23.7,76.3,25.3,76.3z"/>
		<path class="st6" d="M10.6,77.6c-0.5,0-0.9,0-1.4,0c-0.1,0-0.2-0.1-0.2-0.1c-0.2-0.6-0.5-1.1-0.7-1.7c-0.1-0.1-0.1-0.2-0.3-0.2
			c-1.2,0-2.3,0-3.5,0c-0.1,0-0.2,0-0.3,0.2c-0.2,0.6-0.5,1.1-0.7,1.6c-0.1,0.1-0.1,0.2-0.3,0.2c-0.4,0-0.9,0-1.3,0
			c0.1-0.1,0.1-0.2,0.1-0.4c1.1-2.6,2.3-5.2,3.4-7.8c0.1-0.1,0.1-0.2,0.3-0.2c0.3,0,0.7,0,1,0c0.1,0,0.2,0.1,0.2,0.1
			C8.2,72.1,9.4,74.8,10.6,77.6C10.6,77.5,10.6,77.6,10.6,77.6z M4.9,74.3c0.9,0,1.9,0,2.8,0c-0.5-1.1-0.9-2.2-1.4-3.3
			C5.8,72.1,5.3,73.2,4.9,74.3z"/>
		<path class="st6" d="M63.7,69.3c0.5,0,1,0,1.5,0c0,0.1,0,0.2,0,0.2c0,1.5,0,2.9,0,4.4c0,0.4,0,0.8,0.2,1.2
			c0.3,0.7,0.8,1.1,1.6,1.2c0.4,0,0.8,0,1.1-0.1c0.8-0.3,1.2-1,1.2-1.8c0-0.3,0-0.5,0-0.8c0-1.4,0-2.7,0-4.1c0-0.1,0-0.2,0-0.3
			c0.5,0,1,0,1.4,0c0,0,0,0.1,0,0.1c0,1.7,0,3.3,0,5c0,1-0.4,1.9-1.2,2.6c-0.4,0.3-0.9,0.5-1.5,0.6c-0.7,0.1-1.4,0.1-2.1-0.1
			c-1.3-0.4-2.1-1.3-2.3-2.7c0-0.3,0-0.5,0-0.8c0-1.5,0-3,0-4.5C63.7,69.5,63.7,69.4,63.7,69.3z"/>
		<path class="st6" d="M76.6,70.6c-1.6,0-3.1,0-4.7,0c0-0.4,0-0.9,0-1.3c2.2,0,4.4,0,6.6,0c0,0.4,0,0.7,0,1c0,0.1-0.1,0.1-0.1,0.2
			c-1.5,1.8-3,3.7-4.5,5.5c-0.1,0.1-0.1,0.1-0.2,0.2c1.6,0,3.2,0,4.8,0c0,0.4,0,0.9,0,1.3c-2.2,0-4.5,0-6.7,0c0-0.3,0-0.7,0-1
			c0-0.1,0.1-0.1,0.1-0.2c1.5-1.9,3.1-3.7,4.6-5.6C76.5,70.8,76.6,70.7,76.6,70.6z"/>
		<path class="st6" d="M54.3,75.4c0.3,0.3,0.6,0.6,0.9,0.9c-0.6,0.7-1.3,1.1-2.2,1.3c-1.3,0.3-2.6,0.2-3.7-0.7
			c-1.3-1-1.8-2.3-1.6-3.8c0.1-1.4,0.8-2.6,2.1-3.3c1.7-1,4.1-0.7,5.4,0.7c-0.3,0.4-0.6,0.7-0.9,1.1c-0.1-0.1-0.3-0.2-0.4-0.3
			c-0.7-0.5-1.4-0.8-2.3-0.7c-1,0.1-1.7,0.7-2.1,1.6c-0.4,1-0.3,2,0.2,2.9c0.8,1.3,2.5,1.7,3.8,0.9C53.7,75.8,54,75.6,54.3,75.4z"/>
		<path class="st6" d="M26.3,69.3c0.5,0,1,0,1.4,0c0,2.3,0,4.6,0,6.9c1.5,0,2.9,0,4.3,0c0,0.4,0,0.9,0,1.3c-1.9,0-3.8,0-5.8,0
			C26.3,74.8,26.3,72.1,26.3,69.3z"/>
		<path class="st6" d="M45.4,77.6c-0.3,0-0.6,0-0.8,0c-0.1,0-0.1-0.1-0.2-0.1c-0.1-0.3-0.2-0.6-0.4-0.9c0-0.1-0.1-0.1-0.2-0.1
			c-0.7,0-1.3,0-2,0c-0.1,0-0.2,0-0.2,0.1c-0.1,0.3-0.2,0.6-0.4,0.9c0,0.1-0.1,0.2-0.2,0.2c-0.2,0-0.5,0-0.7,0c0-0.1,0-0.1,0-0.2
			c0.7-1.5,1.3-3,2-4.6c0.1-0.1,0.1-0.2,0.2-0.2c0.2,0,0.5-0.1,0.6,0c0.1,0.1,0.2,0.4,0.3,0.5c0.6,1.4,1.2,2.7,1.8,4.1
			C45.4,77.5,45.4,77.5,45.4,77.6z M43.7,75.7c-0.3-0.6-0.5-1.2-0.8-1.8c-0.3,0.6-0.5,1.2-0.8,1.8C42.6,75.7,43.1,75.7,43.7,75.7z"
			/>
		<path class="st6" d="M39.6,76.8c0,0.3,0,0.5,0,0.8c-1.1,0-2.2,0-3.4,0c0-1.6,0-3.2,0-4.8c0.3,0,0.6,0,0.9,0c0,1.3,0,2.6,0,4
			C38,76.8,38.8,76.8,39.6,76.8z"/>
		<path class="st6" d="M44.2,66.7c-0.2,0.2-0.3,0.3-0.5,0.5c-0.5,0.5-1.1,0.9-1.7,1.2c-0.3,0.1-0.7,0.2-1,0.2
			c-0.5,0-0.7-0.3-0.5-0.8c0.1-0.2,0.1-0.3,0.2-0.5c-0.2,0.2-0.4,0.4-0.6,0.5c-0.4,0.2-0.7,0.5-1.1,0.7c-0.1,0.1-0.3,0.1-0.5,0.1
			c-0.2,0-0.3-0.1-0.3-0.3c0-0.2,0.1-0.4,0.2-0.5c0.2-0.3,0.5-0.6,0.8-0.9c0-0.1,0.1-0.1,0.1-0.2c0-0.1,0-0.1,0.1-0.2
			c-0.1,0-0.2,0-0.2,0c-0.3,0.2-0.6,0.3-0.9,0.5c-0.6,0.5-1.2,1-1.9,1.5c-0.1,0.1-0.3,0.1-0.4,0.2c-0.2,0-0.3-0.1-0.2-0.3
			c0.2-0.4,0.4-0.7,0.7-1.1c0-0.1,0.1-0.1,0.1-0.2c-0.3,0.2-0.6,0.5-0.8,0.7c-0.6,0.5-1.2,0.9-1.9,1.1c-0.5,0.1-1,0.2-1.5,0.1
			c-1-0.2-1.5-0.9-1.2-1.9c0.2-0.6,0.5-1.2,0.9-1.7c0.3-0.4,0.7-0.7,1.1-1c0.1-0.1,0.1-0.1,0.2-0.1c-0.1-0.3-0.2-0.6-0.3-0.9
			c-0.1-0.7,0.5-1.3,1.3-1.4c0.7,0,1.3,0.2,1.7,0.7c0.1,0.1,0.2,0.1,0.3,0.1c0.5-0.1,1-0.1,1.5,0c0.8,0.2,0.9,0.9,0.4,1.5
			c-0.3,0.3-0.6,0.4-1,0.5c-1,0.3-1.9,0.3-2.9,0c-0.1,0-0.2-0.1-0.3-0.1c-0.1,0-0.2-0.1-0.3-0.2c-0.2,0.2-0.4,0.4-0.6,0.6
			c-0.5,0.6-1,1.3-1.2,2.1c0,0.2-0.1,0.3,0,0.5c0,0.7,0.5,1.1,1.3,1.1c0.9,0,1.6-0.5,2.3-1c0.5-0.4,1-0.9,1.6-1.3
			c0.1-0.1,0.1-0.2,0.2-0.3c1.3-1.7,2.7-3.2,4.2-4.7c0.4-0.3,0.8-0.6,1.2-0.9c0.1-0.1,0.3-0.1,0.5-0.1c0.4,0,0.6,0.2,0.4,0.6
			c-0.1,0.2-0.2,0.4-0.3,0.5c-0.5,0.6-1.1,1.2-1.7,1.7c-1.1,0.9-2.3,1.8-3.4,2.8c-0.3,0.3-0.6,0.6-0.8,1c-0.2,0.2-0.4,0.5-0.5,0.8
			c0.4-0.3,0.7-0.6,1.1-0.9c0.4-0.3,0.7-0.5,1.1-0.7c0.2-0.1,0.4-0.1,0.6-0.1c0.3,0,0.5,0.2,0.3,0.5c-0.1,0.2-0.2,0.4-0.4,0.6
			c-0.2,0.2-0.3,0.4-0.5,0.6c-0.1,0.1-0.1,0.2-0.1,0.2c0,0.1,0,0.1,0,0.2c0.1,0,0.1,0,0.2,0c0.1,0,0.2-0.1,0.2-0.1
			c0.4-0.3,0.8-0.6,1.1-0.9c0.5-0.4,1.1-0.8,1.7-1c0.2-0.1,0.5-0.1,0.7-0.1c0.3,0,0.5,0.3,0.3,0.5c-0.1,0.2-0.2,0.3-0.4,0.4
			c-0.4,0.3-1,0.5-1.5,0.7c-0.2,0.1-0.3,0.3-0.3,0.5c0,0.2,0.2,0.2,0.4,0.2c0.4-0.1,0.8-0.3,1.2-0.5c0.4-0.3,0.7-0.6,1-0.9
			c0.9-0.6,1.5-1.5,2.2-2.3c1-1.3,2.1-2.4,3.3-3.5c0.3-0.2,0.6-0.4,0.9-0.6c0.2-0.1,0.4-0.1,0.5-0.1c0.2,0,0.4,0.1,0.3,0.4
			c0,0.2,0,0.4-0.1,0.5c-0.3,0.4-0.6,0.8-1,1.2c-1.2,1-2.3,2-3.6,3c-1,0.8-1.7,1.9-2.5,2.9c0,0,0,0,0,0.1c0.3-0.1,0.6-0.2,0.8-0.3
			c0.3-0.1,0.5-0.3,0.8-0.5c0.2-0.2,0.5-0.4,0.7-0.5c0,0,0,0,0.1,0.1c-0.1,0.1-0.1,0.2-0.2,0.2c-0.5,0.5-1.2,0.9-1.9,1.1
			c-0.3,0.1-0.5,0.3-0.6,0.7c-0.5,1.4-1.1,2.8-2,4c-0.2,0.3-0.5,0.6-0.8,0.8c-0.1,0.1-0.3,0.2-0.5,0.2c-0.2,0.1-0.4-0.1-0.4-0.3
			c0-0.2,0-0.4,0.1-0.6c0.3-0.9,0.8-1.7,1.3-2.5c0.9-1.3,1.9-2.6,2.9-3.9C44.2,66.8,44.2,66.8,44.2,66.7
			C44.2,66.7,44.2,66.7,44.2,66.7z M33.8,64.3c0.1,0.1,0.2,0.2,0.3,0.2c0.4,0.1,0.8,0.2,1.2,0.3c0.7,0.1,1.4,0,2-0.4
			c0.3-0.2,0.5-0.4,0.6-0.7c0.1-0.4,0-0.8-0.5-0.9c-0.4-0.1-0.8-0.1-1.3,0.1c0.1,0.4,0.3,0.7,0.2,1.1c-0.1-0.4-0.2-0.7-0.4-1
			C35.1,63.3,34.4,63.7,33.8,64.3z M38.2,65.6C38.3,65.6,38.3,65.6,38.2,65.6C38.3,65.6,38.3,65.6,38.2,65.6
			c0.9-0.7,1.8-1.3,2.6-2.1c0.7-0.6,1.4-1.3,2-2c0.1-0.1,0.2-0.4,0.3-0.5c0.1-0.1,0.1-0.3,0-0.4c-0.1-0.1-0.3,0-0.4,0
			c-0.2,0.1-0.5,0.3-0.7,0.5c-0.7,0.7-1.3,1.4-1.9,2.1C39.5,64,38.9,64.8,38.2,65.6z M45.8,65.6C45.8,65.6,45.8,65.6,45.8,65.6
			C45.9,65.6,45.9,65.6,45.8,65.6c1.2-0.9,2.2-1.9,3.3-2.8c0.5-0.4,0.9-0.9,1.3-1.4c0.1-0.1,0.2-0.3,0.2-0.5
			c0.1-0.2-0.1-0.4-0.3-0.3c-0.1,0-0.1,0.1-0.2,0.1c-0.2,0.2-0.5,0.3-0.6,0.5c-0.9,1-1.8,2-2.7,3C46.5,64.7,46.1,65.2,45.8,65.6z
			 M43.4,68.9C43.3,68.9,43.3,68.9,43.4,68.9c-0.1,0-0.1,0-0.1,0.1c-1,1.3-1.9,2.6-2.7,4c-0.1,0.2-0.2,0.4-0.3,0.5
			c0,0.1,0,0.2,0,0.3c0.1,0,0.2,0,0.2-0.1c0.2-0.1,0.4-0.3,0.5-0.5c1-1.1,1.6-2.5,2.1-3.9C43.2,69.2,43.3,69.1,43.4,68.9z
			 M35.8,62.8c-0.4-0.5-1.2-0.8-1.8-0.7c-0.4,0.1-0.7,0.4-0.8,0.8c-0.1,0.4,0,0.8,0.2,1C34.2,63.5,35,63.2,35.8,62.8z M41.3,67.5
			c0.5-0.2,1-0.4,1.4-0.9c0.1-0.1,0.2-0.3,0.1-0.4c-0.1-0.1-0.3,0-0.4,0.1C41.9,66.6,41.6,67,41.3,67.5z"/>
	</g>
</g>
<g id="Cut_Path" class="st4">
	<path class="st7" d="M61.9,65.5c-3.2-7.6-6.5-15.2-9.7-22.8c0.7,0.3,1.3,0.7,1.9,1.1c0-0.3-0.3-0.7-0.5-1c-0.5-0.6-1.2-1-1.9-1.3
		c-1.4-3.3-2.8-6.7-4.3-10c0-0.4,0-0.8,0-1.1c0.1-3.3,0.1-6.7,0.2-10c0.1-2.4,0.1-4.9,0.2-7.3c0.1-3.5,0.2-6.8,0.2-10.3l0-0.1
		c-0.7,0-1.3-0.2-2-0.2c-0.1,0.1-0.1,0.2,0,0.3c0.1,0.8,0.1,1.7,0.1,2.5c0.1,2.4,0.2,4.7,0.3,7.1c0.2,2.2,0.2,4.5,0.3,6.7
		c0.1,1.3,0.1,2.4,0.1,3.7c0.1,2,0.2,4,0.2,6c0.1,0.7,0.1,1.3,0.1,2c-1.7-4.1-3.5-8.1-5.2-12.2c0-0.1,0-0.3,0-0.4
		c0-5.3,0.2-10.5,0.3-15.9c-0.6,0-1.3,0-1.9,0c0,2.5,0.2,4.9,0.2,7.4c0.2,2.3,0.2,4.6,0.3,6.9c0,0.8,0.1,1.5,0.1,2.3
		c-1.7,3.9-3.3,7.9-5,11.8c0-0.5,0-0.9,0-1.4c0-2.5,0.1-4.9,0.2-7.3c0-3.8,0.1-7.5,0.2-11.3c0-2.7,0.1-5.3,0.2-8
		c-0.6,0-1.4,0.1-2,0.2c-0.1,0.2,0,0.5,0,0.7c0,1.8,0.1,3.6,0.2,5.4c0,1.8,0.2,3.6,0.2,5.4c0,2.2,0.2,4.4,0.2,6.6
		c0.1,1.3,0.1,2.5,0.2,3.8c0,0.9,0,1.9,0.1,2.8c0.1,1.3,0.1,2.6,0.2,3.9c-1.4,3.4-2.9,6.8-4.3,10.1c-0.7,0.4-1.4,0.8-1.9,1.5
		c-0.1,0.2-0.3,0.4-0.2,0.6c0.5-0.4,1.1-0.7,1.7-1c-3.2,7.6-6.5,15.2-9.7,22.8c2.2,0,4.3,0,6.3,0c0.3,0,0.6-0.3,0.8-0.6
		c1.7-3.8,3.4-7.5,5-11.3c1.7,0.4,3.5,0.6,5.2,0.7c1.1,0.2,2.3,0.1,3.4,0.1c0.8,0,1.6,0,2.4-0.1c1.7-0.1,3.5-0.4,5.2-0.8
		c0.2,0,0.3-0.1,0.5-0.1c0.8,1.9,1.5,3.7,2.3,5.6c0.8,2,1.7,3.9,2.6,5.8c0.1,0.3,0.5,0.7,0.7,0.7C57.5,65.6,59.6,65.5,61.9,65.5z
		 M38.4,41.1c1.8-0.1,3.7-0.2,5.5,0c0.3,0,0.5,0,0.8,0.1c0.8,2,1.6,4,2.5,6c-0.8-0.1-1.7-0.1-2.5-0.3c-1.8,0-3.6-0.1-5.3,0.1
		c-1.2,0.1-2.4,0.3-3.5,0.5C36.7,45.4,37.5,43.3,38.4,41.1z M44.2,39.9c-0.3,0-0.6-0.1-1-0.1c-1.3-0.1-2.6-0.1-3.9,0
		c-0.1,0-0.3,0-0.4,0c0.7-1.8,1.4-3.7,2.2-5.5c0.1-0.3,0.3-0.6,0.5-1c0.2,0.6,0.4,0.9,0.6,1.3C42.8,36.4,43.5,38.2,44.2,39.9z
		 M47.5,53c-1,0.2-1.9,0.3-2.9,0.4c-0.6,0.1-1.3,0.1-1.9,0.1c-2.7,0.2-5.3,0-8,0c-0.5,0-0.9-0.1-1.4-0.1c0.7-1.6,1.4-3.2,2.1-4.7
		c0,0,0.1,0,0.1,0c2.6-0.3,5.1-0.4,7.7-0.3c1.6,0.1,3.1,0.2,4.6,0.5c0.1,0,0.1,0,0.2,0c0.5,1.2,1,2.4,1.5,3.6
		C48.8,52.7,48.1,52.8,47.5,53z"/>
	<path class="st7" d="M29.1,18.1c0.2,2.1,0.1,4.1,0.3,6.2c0.1,1.4,0.1,2.8,0.2,4.2c0.1,2.1,0.1,4.1,0.2,6.2c0.1,1.3,0.1,2.6,0.2,3.9
		c0.2-4.4,0.1-8.5,0.3-12.9c0-5.8,0.2-10.7,0.3-16.3c0.1-1.7,0.1-3.4,0.1-5.1c0-0.2,0.1-0.5,0-0.6c-0.7,0.1-1.3,0.5-2,0.7l0,0.1
		c0,2.5,0.2,5,0.3,7.5C29,14,29,16,29.1,18.1z"/>
	<path class="st7" d="M52,12c0.1,1.8,0.1,3.6,0.2,5.5c0.1,2.1,0.1,4.1,0.2,6.2c0,1.6,0.1,3.1,0.2,4.7c0.1,1.3,0.1,2.6,0.1,3.9
		c0.2,2.1,0.1,4.2,0.3,6.3c0.1-0.7,0-1.3,0-2c0-2.1,0.1-4.4,0.1-6.5c0.1-3.4,0.1-6.9,0.2-10.4c0.1-2.4,0.1-4.7,0.1-7.1
		c0.1-2.8,0.1-5.5,0.2-8.2c0-0.2-0.3-0.2-0.4-0.3c-0.5-0.2-1.1-0.4-1.7-0.6c0,1.4,0.1,2.7,0.2,4.1C51.9,9.1,52,10.6,52,12z"/>
	<path class="st7" d="M17.2,73.6c-0.2-0.1-0.4-0.2-0.6-0.3c0.1-0.1,0.2-0.1,0.3-0.2c1.2-0.8,1.1-2.6-0.2-3.4
		c-0.5-0.3-1.1-0.4-1.7-0.4c-1.2,0-2.3,0-3.5,0c-0.1,0-0.1,0-0.2,0c0,2.8,0,5.5,0,8.3c0,0,0.1,0,0.1,0c1.3,0,2.7,0,4,0
		c0.5,0,1.1-0.1,1.6-0.4c0.7-0.4,1.2-0.9,1.2-1.8C18.2,74.7,17.9,74,17.2,73.6z M12.7,70.7c0.8,0,1.7,0,2.5,0c0.1,0,0.3,0.1,0.4,0.1
		c0.4,0.2,0.6,0.4,0.6,0.9c0,0.4-0.1,0.8-0.5,0.9c-0.3,0.1-0.6,0.2-1,0.2c-0.6,0-1.3,0-1.9,0c0,0-0.1,0-0.1,0
		C12.7,72.1,12.7,71.4,12.7,70.7z M16.1,76.1c-0.2,0.1-0.5,0.2-0.8,0.2c-0.8,0-1.7,0-2.5,0c0,0-0.1,0-0.1,0c0-0.8,0-1.5,0-2.2
		c0.1,0,0.3,0,0.4,0c0.6,0,1.3,0,1.9,0c0.3,0,0.7,0.1,1,0.2c0.4,0.1,0.7,0.4,0.7,0.9C16.7,75.6,16.5,75.9,16.1,76.1z"/>
	<path class="st7" d="M60.8,74.5C60.9,74.5,60.9,74.4,60.8,74.5c1.2-0.4,1.9-1.2,1.9-2.4c0-0.9-0.3-1.7-1.1-2.2
		c-0.6-0.4-1.3-0.5-2-0.5c-1.2,0-2.3,0-3.5,0c-0.1,0-0.1,0-0.2,0c0,2.8,0,5.5,0,8.2c0.5,0,1,0,1.4,0c0-1,0-1.9,0-2.9
		c0.5,0,1.1,0,1.6,0c0.2,0,0.2,0,0.3,0.2c0.6,0.9,1.2,1.7,1.8,2.6c0.1,0.1,0.1,0.1,0.3,0.1c0.5,0,0.9,0,1.4,0c0,0,0.1,0,0.2,0
		C62.3,76.5,61.5,75.5,60.8,74.5C60.8,74.5,60.8,74.5,60.8,74.5z M58,73.4c-0.2,0-0.3,0-0.5,0c0-0.9,0-1.8,0-2.7c0,0,0,0,0,0
		c0.9,0,1.7,0,2.6,0c1,0.1,1.5,1.1,1,2c-0.3,0.4-0.7,0.6-1.1,0.7C59.3,73.4,58.6,73.4,58,73.4z"/>
	<path class="st7" d="M20.6,74.1c1.4,0,2.7,0,4.1,0c0-0.4,0-0.9,0-1.3c-1.4,0-2.7,0-4.1,0c0-0.7,0-1.4,0-2.1c1.6,0,3.1,0,4.6,0
		c0-0.4,0-0.9,0-1.3c-2,0-4.1,0-6.1,0c0,2.8,0,5.5,0,8.2c2.1,0,4.1,0,6.2,0c0-0.4,0-0.8,0-1.3c-1.6,0-3.1,0-4.7,0
		C20.6,75.5,20.6,74.8,20.6,74.1z"/>
	<path class="st7" d="M7,69.4c0-0.1-0.1-0.1-0.2-0.1c-0.3,0-0.7,0-1,0c-0.2,0-0.2,0-0.3,0.2c-1.1,2.6-2.3,5.2-3.4,7.8
		c0,0.1-0.1,0.2-0.1,0.4c0.5,0,0.9,0,1.3,0c0.2,0,0.2-0.1,0.3-0.2c0.2-0.6,0.5-1.1,0.7-1.6c0.1-0.1,0.1-0.2,0.3-0.2
		c1.2,0,2.3,0,3.5,0c0.1,0,0.2,0.1,0.3,0.2c0.2,0.6,0.5,1.1,0.7,1.7c0,0.1,0.1,0.1,0.2,0.1c0.5,0,0.9,0,1.4,0c0,0,0-0.1,0-0.1
		C9.4,74.8,8.2,72.1,7,69.4z M4.9,74.3c0.5-1.1,0.9-2.2,1.4-3.3c0.5,1.1,0.9,2.2,1.4,3.3C6.7,74.3,5.8,74.3,4.9,74.3z"/>
	<path class="st7" d="M70.8,69.3c-0.5,0-0.9,0-1.4,0c0,0.1,0,0.2,0,0.3c0,1.4,0,2.7,0,4.1c0,0.3,0,0.5,0,0.8
		c-0.1,0.8-0.4,1.5-1.2,1.8c-0.4,0.1-0.7,0.1-1.1,0.1c-0.7-0.1-1.3-0.5-1.6-1.2c-0.2-0.4-0.2-0.8-0.2-1.2c0-1.5,0-2.9,0-4.4
		c0-0.1,0-0.2,0-0.2c-0.5,0-1,0-1.5,0c0,0.1,0,0.2,0,0.3c0,1.5,0,3,0,4.5c0,0.3,0,0.5,0,0.8c0.2,1.4,1,2.3,2.3,2.7
		c0.7,0.2,1.4,0.2,2.1,0.1c0.5-0.1,1-0.3,1.5-0.6c0.8-0.7,1.2-1.6,1.2-2.6c0-1.7,0-3.3,0-5C70.8,69.4,70.8,69.4,70.8,69.3z"/>
	<path class="st7" d="M78.4,70.6c0-0.1,0.1-0.1,0.1-0.2c0-0.3,0-0.7,0-1c-2.2,0-4.4,0-6.6,0c0,0.4,0,0.9,0,1.3c1.6,0,3.1,0,4.7,0
		c-0.1,0.1-0.1,0.1-0.1,0.2c-1.5,1.9-3.1,3.7-4.6,5.6c0,0.1-0.1,0.1-0.1,0.2c0,0.3,0,0.7,0,1c2.3,0,4.5,0,6.7,0c0-0.4,0-0.8,0-1.3
		c-1.6,0-3.2,0-4.8,0c0.1-0.1,0.1-0.2,0.2-0.2C75.4,74.2,76.9,72.4,78.4,70.6z"/>
	<path class="st7" d="M53.4,76c-1.3,0.8-3,0.4-3.8-0.9c-0.5-0.9-0.6-1.9-0.2-2.9c0.4-0.9,1.1-1.5,2.1-1.6c0.9-0.1,1.6,0.1,2.3,0.7
		c0.1,0.1,0.3,0.2,0.4,0.3c0.3-0.4,0.6-0.7,0.9-1.1c-1.3-1.4-3.7-1.7-5.4-0.7c-1.3,0.7-1.9,1.9-2.1,3.3c-0.1,1.5,0.4,2.9,1.6,3.8
		c1.1,0.9,2.4,1,3.7,0.7c0.9-0.2,1.6-0.7,2.2-1.3c-0.3-0.3-0.6-0.6-0.9-0.9C54,75.6,53.7,75.8,53.4,76z"/>
	<path class="st7" d="M27.7,69.3c-0.5,0-1,0-1.4,0c0,2.8,0,5.5,0,8.2c1.9,0,3.8,0,5.8,0c0-0.4,0-0.9,0-1.3c-1.4,0-2.9,0-4.3,0
		C27.7,74,27.7,71.7,27.7,69.3z"/>
	<path class="st7" d="M43.6,73.3c-0.1-0.2-0.1-0.5-0.3-0.5c-0.2-0.1-0.4,0-0.6,0c-0.1,0-0.2,0-0.2,0.2c-0.7,1.5-1.3,3-2,4.6
		c0,0,0,0.1,0,0.2c0.3,0,0.5,0,0.7,0c0.1,0,0.2,0,0.2-0.2c0.1-0.3,0.2-0.6,0.4-0.9c0-0.1,0.1-0.1,0.2-0.1c0.7,0,1.3,0,2,0
		c0.1,0,0.2,0.1,0.2,0.1c0.1,0.3,0.2,0.6,0.4,0.9c0,0.1,0.1,0.1,0.2,0.1c0.3,0,0.5,0,0.8,0c0-0.1-0.1-0.2-0.1-0.2
		C44.7,76,44.2,74.7,43.6,73.3z M42.1,75.7c0.3-0.6,0.5-1.2,0.8-1.8c0.3,0.6,0.5,1.2,0.8,1.8C43.1,75.7,42.6,75.7,42.1,75.7z"/>
	<path class="st7" d="M37.1,72.8c-0.3,0-0.6,0-0.9,0c0,1.6,0,3.2,0,4.8c1.1,0,2.3,0,3.4,0c0-0.3,0-0.5,0-0.8c-0.8,0-1.7,0-2.5,0
		C37.1,75.4,37.1,74.1,37.1,72.8z"/>
	<path class="st7" d="M46.3,65.4c1.2-1,2.4-2,3.6-3c0.4-0.3,0.7-0.8,1-1.2C51,61.2,51,61,51,60.8c0-0.2-0.1-0.4-0.3-0.4
		c-0.2,0-0.4,0-0.5,0.1c-0.3,0.2-0.6,0.4-0.9,0.6c-1.2,1-2.3,2.2-3.3,3.5c-0.7,0.8-1.3,1.7-2.2,2.3c-0.4,0.3-0.7,0.6-1,0.9
		c-0.3,0.3-0.7,0.4-1.2,0.5c-0.2,0-0.4,0-0.4-0.2c-0.1-0.2,0-0.4,0.3-0.5c0.5-0.2,1-0.3,1.5-0.7c0.2-0.1,0.3-0.3,0.4-0.4
		c0.2-0.3,0-0.6-0.3-0.5c-0.2,0-0.5,0.1-0.7,0.1c-0.6,0.2-1.2,0.6-1.7,1c-0.4,0.3-0.8,0.6-1.1,0.9c-0.1,0.1-0.2,0.1-0.2,0.1
		c-0.1,0-0.1,0-0.2,0c0-0.1,0-0.1,0-0.2c0-0.1,0.1-0.2,0.1-0.2c0.2-0.2,0.3-0.4,0.5-0.6c0.1-0.2,0.3-0.4,0.4-0.6
		c0.1-0.3,0-0.5-0.3-0.5c-0.2,0-0.4,0-0.6,0.1c-0.4,0.2-0.8,0.4-1.1,0.7c-0.4,0.3-0.7,0.6-1.1,0.9c0.2-0.3,0.3-0.6,0.5-0.8
		c0.3-0.3,0.5-0.7,0.8-1c1.1-0.9,2.3-1.8,3.4-2.8c0.6-0.5,1.2-1,1.7-1.7c0.1-0.2,0.2-0.4,0.3-0.5c0.1-0.3-0.1-0.6-0.4-0.6
		c-0.2,0-0.4,0-0.5,0.1c-0.4,0.3-0.9,0.5-1.2,0.9c-1.6,1.4-3,3-4.2,4.7c-0.1,0.1-0.1,0.2-0.2,0.3c-0.5,0.4-1,0.9-1.6,1.3
		c-0.7,0.5-1.4,0.9-2.3,1c-0.8,0-1.2-0.3-1.3-1.1c0-0.2,0-0.3,0-0.5c0.2-0.8,0.6-1.5,1.2-2.1c0.2-0.2,0.4-0.4,0.6-0.6
		c0.1,0.1,0.2,0.1,0.3,0.2c0.1,0.1,0.2,0.1,0.3,0.1c1,0.3,1.9,0.3,2.9,0c0.4-0.1,0.7-0.3,1-0.5c0.6-0.6,0.4-1.3-0.4-1.5
		c-0.5-0.1-1-0.1-1.5,0c-0.1,0-0.2,0-0.3-0.1c-0.4-0.5-1-0.8-1.7-0.7c-0.8,0-1.4,0.6-1.3,1.4c0,0.3,0.2,0.6,0.3,0.9
		c0,0-0.1,0.1-0.2,0.1c-0.4,0.3-0.7,0.6-1.1,1c-0.4,0.5-0.8,1-0.9,1.7c-0.2,1,0.2,1.8,1.2,1.9c0.5,0.1,1,0.1,1.5-0.1
		c0.7-0.2,1.3-0.6,1.9-1.1c0.3-0.2,0.5-0.5,0.8-0.7c0,0.1-0.1,0.2-0.1,0.2c-0.2,0.3-0.4,0.7-0.7,1.1c-0.1,0.2-0.1,0.3,0.2,0.3
		c0.1,0,0.3-0.1,0.4-0.2c0.6-0.5,1.2-1,1.9-1.5c0.3-0.2,0.6-0.4,0.9-0.5c0.1,0,0.1,0,0.2,0c0,0.1,0,0.1-0.1,0.2
		c0,0.1-0.1,0.1-0.1,0.2c-0.3,0.3-0.5,0.6-0.8,0.9c-0.1,0.2-0.2,0.4-0.2,0.5c0,0.2,0.1,0.3,0.3,0.3c0.2,0,0.4,0,0.5-0.1
		c0.4-0.2,0.7-0.4,1.1-0.7c0.2-0.1,0.4-0.3,0.6-0.5c-0.1,0.2-0.2,0.4-0.2,0.5c-0.1,0.5,0.1,0.7,0.5,0.8c0.4,0,0.7,0,1-0.2
		c0.7-0.3,1.2-0.7,1.7-1.2c0.2-0.2,0.3-0.3,0.5-0.5c0,0,0,0,0,0c0,0.1-0.1,0.1-0.1,0.2c-1,1.3-1.9,2.6-2.9,3.9
		c-0.5,0.8-1,1.6-1.3,2.5c-0.1,0.2-0.1,0.4-0.1,0.6c0,0.2,0.2,0.4,0.4,0.3c0.2,0,0.3-0.1,0.5-0.2c0.3-0.2,0.6-0.5,0.8-0.8
		c0.9-1.2,1.6-2.5,2-4c0.1-0.3,0.3-0.6,0.6-0.7c0.7-0.2,1.3-0.6,1.9-1.1c0.1-0.1,0.1-0.1,0.2-0.2c0,0,0,0-0.1-0.1
		c-0.2,0.2-0.5,0.4-0.7,0.5c-0.3,0.2-0.5,0.3-0.8,0.5c-0.3,0.1-0.5,0.2-0.8,0.3c0,0,0,0,0-0.1C44.5,67.3,45.3,66.2,46.3,65.4z
		 M46.8,64.3c0.9-1,1.8-2,2.7-3c0.2-0.2,0.4-0.4,0.6-0.5c0.1,0,0.1-0.1,0.2-0.1c0.2-0.1,0.4,0.1,0.3,0.3c-0.1,0.2-0.1,0.4-0.2,0.5
		c-0.4,0.5-0.8,0.9-1.3,1.4c-1.1,1-2.1,1.9-3.2,2.8c0,0,0,0,0,0c0,0,0,0,0,0C46.1,65.2,46.5,64.7,46.8,64.3z M42.3,66.3
		c0.1-0.1,0.3-0.2,0.4-0.1c0.1,0.1,0,0.3-0.1,0.4c-0.3,0.5-0.8,0.7-1.4,0.9C41.6,67,41.9,66.6,42.3,66.3z M40.2,63.2
		c0.6-0.7,1.3-1.4,1.9-2.1c0.2-0.2,0.4-0.3,0.7-0.5c0.1-0.1,0.3-0.1,0.4,0c0.1,0.1,0.1,0.3,0,0.4c-0.1,0.2-0.2,0.4-0.3,0.5
		c-0.7,0.7-1.3,1.3-2,2c-0.8,0.7-1.7,1.4-2.5,2.1c0,0,0,0,0,0c0,0,0,0,0,0C38.9,64.8,39.5,64,40.2,63.2z M35.9,63
		c0.2,0.3,0.3,0.7,0.4,1c0.1-0.4,0-0.7-0.2-1.1c0.4-0.1,0.8-0.2,1.3-0.1c0.4,0.1,0.6,0.5,0.5,0.9c-0.1,0.3-0.3,0.5-0.6,0.7
		c-0.6,0.4-1.3,0.5-2,0.4c-0.4-0.1-0.8-0.2-1.2-0.3c-0.1,0-0.2-0.1-0.3-0.2C34.4,63.7,35.1,63.3,35.9,63z M33.2,62.9
		c0.1-0.4,0.4-0.7,0.8-0.8c0.6-0.1,1.4,0.2,1.8,0.7c-0.8,0.4-1.6,0.8-2.4,1.1C33.2,63.6,33.1,63.3,33.2,62.9z M43.2,69.4
		c-0.5,1.4-1.2,2.7-2.1,3.9c-0.2,0.2-0.3,0.3-0.5,0.5c-0.1,0-0.2,0-0.2,0.1c0-0.1,0-0.2,0-0.3c0.1-0.2,0.2-0.4,0.3-0.5
		c0.8-1.4,1.7-2.7,2.7-4c0,0,0.1-0.1,0.1-0.1c0,0,0,0,0,0C43.3,69.1,43.2,69.2,43.2,69.4z"/>
</g>
</svg>
