<?xml version="1.0" encoding="utf-8"?>
<!-- Generator: Adobe Illustrator 21.1.0, SVG Export Plug-In . SVG Version: 6.00 Build 0)  -->
<svg version="1.1" id="Layer_1" xmlns="http://www.w3.org/2000/svg" xmlns:xlink="http://www.w3.org/1999/xlink" x="0px" y="0px"
	 viewBox="0 0 81 80" style="enable-background:new 0 0 81 80;" xml:space="preserve">
<style type="text/css">
	.st0{fill:#E8EBEC;}
	.st1{fill:#BDC3D8;}
	.st2{fill:#FFFFFF;}
	.st3{fill:#21365F;}
</style>
<g>
	<circle class="st0" cx="57" cy="19.2" r="14"/>
	<circle class="st0" cx="52" cy="65.4" r="12"/>
	<circle class="st0" cx="24.2" cy="31.6" r="20"/>
	<g>
		<path class="st1" d="M70.2,40.2h-54c0-2.8-2.2-5-5-5l0,0h64l0,0C72.5,35.2,70.2,37.4,70.2,40.2z"/>
		<path class="st2" d="M62.2,40.2h-46c0-2.8-2.2-5-5-5l0,0h56l0,0C64.5,35.2,62.2,37.4,62.2,40.2z"/>
		<path class="st3" d="M70.2,41h-54c-0.4,0-0.8-0.3-0.8-0.8c0-2.3-1.9-4.3-4.3-4.3c-0.4,0-0.8-0.3-0.8-0.8c0-0.4,0.3-0.8,0.8-0.8h64
			c0.4,0,0.8,0.3,0.8,0.8c0,0.4-0.3,0.8-0.8,0.8c-2.3,0-4.3,1.9-4.3,4.3C71,40.6,70.6,41,70.2,41z M16.9,39.5h52.6
			c0.2-1.4,0.9-2.6,1.8-3.5H15.1C16.1,36.8,16.7,38.1,16.9,39.5z"/>
		<path class="st2" d="M16.8,35.2c0-14.4,11.6-26,26-26s26,11.6,26,26H16.8z"/>
		<path class="st1" d="M61.3,35.2h7.5c0-14.4-11.6-26-26-26c-6.9,0-13.1,2.7-17.8,7c3.3-1.5,6.9-2.3,10.7-2.3
			C48.5,13.9,59.1,23.1,61.3,35.2z"/>
		<path class="st3" d="M68.8,36h-52c-0.4,0-0.8-0.3-0.8-0.8c0-14.8,12-26.8,26.8-26.8s26.7,12,26.7,26.8C69.6,35.6,69.3,36,68.8,36z
			 M17.6,34.5h50.5C67.7,20.9,56.5,10,42.8,10C29.2,10,18,20.9,17.6,34.5z"/>
		<path class="st3" d="M42.8,10c-0.4,0-0.8-0.3-0.8-0.8v-2c0-0.4,0.3-0.8,0.8-0.8c0.4,0,0.8,0.3,0.8,0.8v2C43.6,9.6,43.3,10,42.8,10
			z"/>
		<path class="st2" d="M35,40.2c0,0,0.9,8.1,3.4,9.9c2.6,1.9,9.6-1,13.7-9.9h4.5c-1.5,12.5-21.1,28-21.1,28l-9.4-9.4
			c0,0-0.6-4.6,3.4-9.2c2.4-2.9-0.4-9.4-0.4-9.4H35z"/>
		<path class="st1" d="M53.6,40.2c-1.3,10.3-14.7,22.6-19.4,26.7l1.4,1.4c0,0,19.5-15.5,21.1-28H53.6z"/>
		<path class="st1" d="M35.4,50.1c0.8,0.6,2.1,0.7,3.6,0.3c-0.2-0.1-0.4-0.2-0.6-0.3c-2.6-1.9-3.4-9.9-3.4-9.9h-3
			C32,40.2,32.8,48.3,35.4,50.1z"/>
		<path class="st3" d="M35.5,69c-0.2,0-0.4-0.1-0.5-0.2l-9.4-9.4c-0.1-0.1-0.2-0.3-0.2-0.4c0-0.2-0.6-5,3.5-9.8
			c1.7-2.1,0.2-6.9-0.5-8.6c-0.1-0.2-0.1-0.5,0.1-0.7c0.1-0.2,0.4-0.3,0.6-0.3H35c0.4,0,0.7,0.3,0.7,0.7c0.2,2.2,1.2,8,3.1,9.4
			c0.6,0.4,1.7,0.5,2.9,0.2c2.9-0.8,6.9-3.7,9.7-9.9c0.1-0.3,0.4-0.4,0.7-0.4h4.5c0.2,0,0.4,0.1,0.6,0.3c0.1,0.2,0.2,0.4,0.2,0.6
			C55.7,53,36.8,68.2,36,68.8C35.8,68.9,35.7,69,35.5,69z M26.8,58.5l8.8,8.8c3-2.5,18.1-15.5,20.1-26.3h-3.1
			c-3,6.3-7.4,9.4-10.5,10.2c-1.7,0.4-3.1,0.3-4.1-0.4c-2.4-1.7-3.4-7.7-3.7-9.8h-4.2c0.7,2.1,2,6.6-0.1,9.1
			C26.9,53.8,26.8,57.5,26.8,58.5z"/>
		<path class="st2" d="M52.1,40.2h-6c0,0-1.4,5.9-7,10.3C42.1,51.5,48.4,48.4,52.1,40.2z"/>
		<path class="st1" d="M49.7,40.2c-2.9,6.3-7.3,9.6-10.5,10.3c3,0.9,9.2-2.2,12.9-10.3H49.7z"/>
		<path class="st3" d="M40.3,51.4c-0.5,0-1-0.1-1.4-0.2c-0.3-0.1-0.5-0.3-0.5-0.6c0-0.3,0.1-0.5,0.3-0.7c5.3-4.2,6.7-9.8,6.7-9.9
			c0.1-0.3,0.4-0.6,0.7-0.6h6c0.3,0,0.5,0.1,0.6,0.3c0.1,0.2,0.2,0.5,0.1,0.7C49.3,48.1,43.8,51.4,40.3,51.4z M46.7,41
			c-0.5,1.5-2,5.4-5.7,8.9c2.8-0.3,7-3.2,9.9-8.9H46.7z"/>
		<path class="st3" d="M11.2,72c-0.2,0-0.4-0.1-0.5-0.2c-0.3-0.3-0.3-0.8,0-1.1L24.3,57c0.3-0.3,0.8-0.3,1.1,0l11.3,11.3
			c0.1,0.1,0.2,0.3,0.2,0.5c0,0.2-0.1,0.4-0.2,0.5l-2.3,2.3c-0.3,0.3-0.8,0.3-1.1,0c-0.3-0.3-0.3-0.8,0-1.1l1.8-1.8L24.9,58.6
			L11.7,71.7C11.6,71.9,11.4,72,11.2,72z"/>
		<path class="st3" d="M25.5,71.9c-0.2,0-0.4-0.1-0.5-0.2l-7.1-7.1c-0.3-0.3-0.3-0.8,0-1.1c0.3-0.3,0.8-0.3,1.1,0l7.1,7.1
			c0.3,0.3,0.3,0.8,0,1.1C25.9,71.8,25.7,71.9,25.5,71.9z"/>
		<circle class="st3" cx="24.7" cy="63.9" r="1"/>
		<path class="st2" d="M62.2,51.7c2.5,0,4.5,2,4.5,4.5c0-2.5,2-4.5,4.5-4.5c-2.5,0-4.5-2-4.5-4.5C66.7,49.7,64.7,51.7,62.2,51.7z"/>
		<path class="st3" d="M66.7,57L66.7,57c-0.4,0-0.8-0.3-0.8-0.8c0-2.1-1.7-3.7-3.8-3.7c-0.4,0-0.8-0.3-0.8-0.8
			c0-0.4,0.3-0.8,0.8-0.8c2.1,0,3.8-1.7,3.8-3.8c0-0.4,0.3-0.8,0.8-0.8l0,0c0.4,0,0.8,0.3,0.8,0.8c0,2.1,1.7,3.8,3.7,3.8
			c0.4,0,0.8,0.3,0.8,0.8c0,0.4-0.3,0.8-0.8,0.8c-2.1,0-3.7,1.7-3.8,3.8C67.5,56.6,67.1,57,66.7,57z M64.9,51.7
			c0.7,0.4,1.4,1.1,1.8,1.8c0.4-0.7,1.1-1.4,1.8-1.8c-0.7-0.4-1.4-1.1-1.8-1.8C66.3,50.6,65.7,51.3,64.9,51.7z"/>
		<path class="st2" d="M27.2,27.7c2.5,0,4.5,2,4.5,4.5c0-2.5,2-4.5,4.5-4.5c-2.5,0-4.5-2-4.5-4.5C31.7,25.7,29.7,27.7,27.2,27.7z"/>
		<path class="st3" d="M31.7,32.9L31.7,32.9c-0.4,0-0.8-0.3-0.8-0.8c0-2.1-1.7-3.8-3.7-3.8c-0.4,0-0.8-0.3-0.8-0.8
			c0-0.4,0.3-0.8,0.8-0.8c2.1,0,3.7-1.7,3.8-3.8c0-0.4,0.3-0.8,0.8-0.8l0,0c0.4,0,0.8,0.3,0.8,0.8c0,2.1,1.7,3.8,3.8,3.8
			c0.4,0,0.8,0.3,0.8,0.8c0,0.4-0.3,0.8-0.8,0.8c-2.1,0-3.8,1.7-3.8,3.8C32.5,32.6,32.1,32.9,31.7,32.9z M29.9,27.7
			c0.7,0.4,1.4,1.1,1.8,1.8c0.4-0.7,1.1-1.4,1.8-1.8c-0.7-0.4-1.4-1.1-1.8-1.8C31.3,26.6,30.6,27.3,29.9,27.7z"/>
		<path class="st2" d="M49.2,66.7c2.5,0,4.5,2,4.5,4.5c0-2.5,2-4.5,4.5-4.5c-2.5,0-4.5-2-4.5-4.5C53.7,64.7,51.7,66.7,49.2,66.7z"/>
		<path class="st3" d="M53.7,72L53.7,72c-0.4,0-0.8-0.3-0.8-0.8c0-2.1-1.7-3.8-3.8-3.8c-0.4,0-0.8-0.3-0.8-0.8s0.3-0.8,0.8-0.8
			c2.1,0,3.8-1.7,3.8-3.8c0-0.4,0.3-0.8,0.8-0.8l0,0c0.4,0,0.8,0.3,0.8,0.8c0,2.1,1.7,3.8,3.7,3.8c0.4,0,0.8,0.3,0.8,0.8
			s-0.3,0.8-0.8,0.8c-2.1,0-3.7,1.7-3.8,3.8C54.5,71.6,54.1,72,53.7,72z M51.9,66.7c0.7,0.4,1.4,1.1,1.8,1.8
			c0.4-0.7,1.1-1.4,1.8-1.8c-0.7-0.4-1.4-1.1-1.8-1.8C53.3,65.6,52.7,66.3,51.9,66.7z"/>
	</g>
</g>
</svg>
