<?xml version="1.0" encoding="utf-8"?>
<!-- Generator: Adobe Illustrator 21.1.0, SVG Export Plug-In . SVG Version: 6.00 Build 0)  -->
<svg version="1.1" id="Layer_1" xmlns="http://www.w3.org/2000/svg" xmlns:xlink="http://www.w3.org/1999/xlink" x="0px" y="0px"
	 viewBox="0 0 300 77" style="enable-background:new 0 0 300 77;" xml:space="preserve">
<style type="text/css">
	.st0{fill:#DDE2A8;}
	.st1{fill-rule:evenodd;clip-rule:evenodd;fill:#FFFFFF;}
	.st2{fill:#FFFFFF;}
</style>
<g>
	<g>
		<rect x="14.1" y="65.9" class="st0" width="22.7" height="1.7"/>
	</g>
	<g>
		<rect x="7.1" y="9.7" class="st0" width="1.7" height="57.9"/>
	</g>
</g>
<g>
	<path class="st0" d="M91.9,59.7l-0.6,0.6C86,65.2,79.2,68,72.1,68.3c-0.3,0-0.7,0-1,0c-7.5,0-14.6-2.8-20.2-8
		c-5.8-5.4-9.2-12.7-9.4-20.6c-0.3-7.9,2.6-15.4,8-21.2c5.4-5.8,12.7-9.2,20.6-9.4c0.3,0,0.7,0,1,0c7.2,0,14.2,2.6,19.6,7.4l0.6,0.6
		l-1.1,1.3l-1.6-1.3c-4.9-4-11.2-6.2-17.5-6.2c-0.3,0-0.6,0-1,0c-7.4,0.3-14.3,3.4-19.4,8.9c-5.1,5.5-7.8,12.6-7.5,20
		c0.3,7.4,3.4,14.3,8.9,19.4c5.2,4.9,12,7.6,19,7.6c0.3,0,0.6,0,1,0c6.3-0.2,12.4-2.6,17.2-6.7l1.6-1.4L91.9,59.7z"/>
</g>
<g>
	<g>
		<path class="st0" d="M133.2,38.6l-0.8-0.3l0.8-0.3c1.9-0.8,3.6-2,5-3.5c2.4-2.7,3.8-6.4,3.8-10.3s-1.3-7.6-3.8-10.3
			c-2.5-2.8-6-4.4-10.1-4.7l-0.3,0v0h-1.1l-19.9,0h-2.1v1.7h22.2c9.2,0,13.4,6.9,13.4,13.4c0,6.4-4.2,13.4-13.4,13.4h-0.9l-0.4,0
			l-18.9,0h-0.4V16.2h-1.7v44.1h1.7V39.2h20.7c9,0.1,13.2,7,13.2,13.4c0,6.4-4.2,13.4-13.4,13.4h-0.9l-0.4,0h-21v1.7h2.1l21,0v0
			l0.3,0c4.1-0.3,7.6-1.9,10.1-4.7c2.4-2.7,3.8-6.4,3.8-10.3c0-3.9-1.3-7.6-3.8-10.3C136.9,40.6,135.2,39.4,133.2,38.6z"/>
	</g>
</g>
<g>
	<path class="st1" d="M71,59.4c5.7,0,10.9-2.3,14.7-6.1c3.7-3.7,6.1-8.9,6.1-14.7c0-5.7-2.3-10.9-6.1-14.7
		c-3.7-3.7-8.9-6.1-14.7-6.1c-5.7,0-10.9,2.3-14.7,6.1c-3.7,3.7-6.1,8.9-6.1,14.7c0,5.7,2.3,10.9,6.1,14.7
		C60.1,57.1,65.3,59.4,71,59.4L71,59.4z M86.2,53.8c-3.9,3.9-9.2,6.3-15.2,6.3c-5.9,0-11.3-2.4-15.2-6.3c-3.9-3.9-6.3-9.2-6.3-15.2
		c0-5.9,2.4-11.3,6.3-15.2c3.9-3.9,9.2-6.3,15.2-6.3c5.9,0,11.3,2.4,15.2,6.3c3.9,3.9,6.3,9.2,6.3,15.2
		C92.5,44.6,90.1,49.9,86.2,53.8z"/>
	<path class="st1" d="M71,57.6c5.2,0,10-2.1,13.4-5.6c3.4-3.4,5.6-8.2,5.6-13.4c0-5.2-2.1-10-5.6-13.4c-3.4-3.4-8.2-5.6-13.4-5.6
		c-5.2,0-10,2.1-13.4,5.6c-3.4,3.4-5.6,8.2-5.6,13.4c0,5.2,2.1,10,5.6,13.4C61,55.5,65.8,57.6,71,57.6L71,57.6z M84.7,52.3
		C81.2,55.8,76.4,58,71,58c-5.3,0-10.2-2.2-13.7-5.7c-3.5-3.5-5.7-8.3-5.7-13.7c0-5.3,2.2-10.2,5.7-13.7c3.5-3.5,8.3-5.7,13.7-5.7
		c5.3,0,10.2,2.2,13.7,5.7c3.5,3.5,5.7,8.3,5.7,13.7C90.4,44,88.2,48.8,84.7,52.3z"/>
	<path class="st1" d="M69,17.6c0.7-2.9,1.3-5.7,2-8.6c0.7,2.9,1.3,5.7,2,8.6l0.1,0.2l-0.2,0c-0.3,0-0.6,0-0.9-0.1
		c-0.3,0-0.6,0-0.8,0h0h0h0h0h0h0h0h0h0c-0.3,0-0.6,0-0.8,0c-0.3,0-0.6,0-0.9,0.1l-0.2,0L69,17.6L69,17.6z M70.9,11.4l-1.4,6.1
		c0.2,0,0.4,0,0.7,0c0.2,0,0.5,0,0.7,0C70.9,15.4,70.9,13.4,70.9,11.4z"/>
	<path class="st1" d="M92.1,36.7c2.9,0.7,5.7,1.3,8.6,2c-2.9,0.7-5.7,1.3-8.6,2l-0.2,0.1l0-0.2c0-0.3,0-0.6,0.1-0.9
		c0-0.3,0-0.6,0-0.8v0v0v0v0v0v0v0v0v0c0-0.3,0-0.6,0-0.8c0-0.3,0-0.6-0.1-0.9l0-0.2L92.1,36.7L92.1,36.7z M98.3,38.5l-6.1-1.4
		c0,0.2,0,0.4,0,0.7c0,0.2,0,0.5,0,0.7C94.3,38.5,96.3,38.5,98.3,38.5z"/>
	<path class="st1" d="M73,59.7c-0.7,2.9-1.3,5.7-2,8.6c-0.7-2.9-1.3-5.7-2-8.6L69,59.5l0.2,0c0.3,0,0.6,0,0.9,0.1c0.3,0,0.6,0,0.8,0
		h0h0h0h0h0h0h0h0h0c0.3,0,0.6,0,0.8,0c0.3,0,0.6,0,0.9-0.1l0.2,0L73,59.7L73,59.7z M71.2,66l1.4-6.1c-0.2,0-0.4,0-0.7,0
		c-0.2,0-0.5,0-0.7,0C71.2,61.9,71.2,63.9,71.2,66z"/>
	<path class="st1" d="M50,40.6c-2.9-0.7-5.7-1.3-8.6-2c2.9-0.7,5.7-1.3,8.6-2l0.2-0.1l0,0.2c0,0.3,0,0.6-0.1,0.9c0,0.3,0,0.6,0,0.8
		v0v0v0v0v0v0v0v0v0c0,0.3,0,0.6,0,0.8c0,0.3,0,0.6,0.1,0.9l0,0.2L50,40.6L50,40.6z M43.7,38.8l6.1,1.4c0-0.2,0-0.4,0-0.7
		c0-0.2,0-0.5,0-0.7C47.8,38.8,45.7,38.8,43.7,38.8z"/>
	<path class="st1" d="M84.4,22.5c1.5-0.5,3-1.1,4.5-1.6c-0.5,1.5-1.1,3-1.6,4.5l0,0.1L87,25.2c-0.2-0.2-0.4-0.4-0.6-0.7
		c-0.2-0.2-0.4-0.4-0.6-0.6l0,0l0,0l0,0l0,0l0,0l0,0l0,0l0,0l0,0c-0.2-0.2-0.4-0.4-0.6-0.6c-0.2-0.2-0.4-0.4-0.7-0.6l-0.2-0.2
		L84.4,22.5L84.4,22.5z M87.9,21.5l-3.2,1.2c0.2,0.1,0.3,0.3,0.5,0.5c0.2,0.2,0.4,0.3,0.5,0.5C86.5,23,87.2,22.2,87.9,21.5z"/>
	<path class="st1" d="M87.2,52.1c0.5,1.5,1.1,3,1.6,4.5c-1.5-0.5-3-1.1-4.5-1.6l-0.1,0l0.2-0.2c0.2-0.2,0.4-0.4,0.7-0.6
		c0.2-0.2,0.4-0.4,0.6-0.6l0,0l0,0l0,0l0,0l0,0l0,0l0,0l0,0l0,0c0.2-0.2,0.4-0.4,0.6-0.6c0.2-0.2,0.4-0.4,0.6-0.7l0.2-0.2L87.2,52.1
		L87.2,52.1z M88.1,55.5L87,52.4c-0.1,0.2-0.3,0.3-0.5,0.5c-0.2,0.2-0.3,0.4-0.5,0.5C86.7,54.1,87.4,54.8,88.1,55.5z"/>
	<path class="st1" d="M57.6,54.9c-1.5,0.5-3,1.1-4.5,1.6c0.5-1.5,1.1-3,1.6-4.5l0-0.1l0.2,0.2c0.2,0.2,0.4,0.4,0.6,0.7
		c0.2,0.2,0.4,0.4,0.6,0.6l0,0l0,0l0,0l0,0l0,0l0,0l0,0l0,0l0,0c0.2,0.2,0.4,0.4,0.6,0.6c0.2,0.2,0.4,0.4,0.7,0.6l0.2,0.2L57.6,54.9
		L57.6,54.9z M54.1,55.8l3.2-1.2c-0.2-0.1-0.3-0.3-0.5-0.5c-0.2-0.2-0.4-0.3-0.5-0.5C55.6,54.4,54.8,55.1,54.1,55.8z"/>
	<path class="st1" d="M54.8,25.3c-0.5-1.5-1.1-3-1.6-4.5c1.5,0.5,3,1.1,4.5,1.6l0.1,0l-0.2,0.2c-0.2,0.2-0.4,0.4-0.7,0.6
		c-0.2,0.2-0.4,0.4-0.6,0.6l0,0l0,0l0,0l0,0l0,0l0,0l0,0l0,0l0,0c-0.2,0.2-0.4,0.4-0.6,0.6c-0.2,0.2-0.4,0.4-0.6,0.7l-0.2,0.2
		L54.8,25.3L54.8,25.3z M53.9,21.8l1.2,3.2c0.1-0.2,0.3-0.3,0.5-0.5c0.2-0.2,0.3-0.4,0.5-0.5C55.3,23.2,54.6,22.5,53.9,21.8z"/>
	<path class="st1" d="M87.4,42.3c0.3-1.2,0.4-2.4,0.4-3.7c0-2.1-0.4-4.2-1.1-6.1l0.3-0.1c0.7,1.9,1.2,4,1.2,6.2
		c0,1.3-0.1,2.6-0.4,3.8L87.4,42.3L87.4,42.3z M54.3,42.4c-0.3-1.2-0.4-2.5-0.4-3.8c0-2.2,0.4-4.3,1.2-6.2l0.3,0.1
		c-0.7,1.9-1.1,3.9-1.1,6.1c0,1.3,0.1,2.5,0.4,3.7L54.3,42.4z"/>
	<g>
		<path class="st2" d="M65.5,45.6C65.5,45.6,65.5,45.6,65.5,45.6L65.5,45.6z"/>
		<path class="st2" d="M70.4,31c0,0.7,0.1,1.4,0.1,2c0.1,1.2,0.1,2.5,0.1,3.7c0.1,1.3,0.1,2.6,0.2,3.9c0,0,0.1,0,0.1,0
			c0.1-2.9,0.1-5.9,0.2-8.7c0-3.2,0.1-6.3,0.2-9.5c-0.4,0-0.8,0-1.1,0c0,1.5,0.1,2.9,0.1,4.4C70.3,28.2,70.4,29.6,70.4,31z"/>
		<path class="st2" d="M73.6,24.2c0,1.4,0.1,2.8,0.2,4.2c0.1,1.3,0.1,2.7,0.2,4c0.1,0.7,0.1,1.4,0.1,2.2c0.1,1.2,0.1,2.4,0.1,3.5
			c0.1,1.2,0.1,2.4,0.2,3.6c0,0.3,0,0.6,0,1c0-0.3,0-0.8,0.1-1.1c0-0.8,0-1.7,0.1-2.5c0.1-2,0.1-4,0.1-6c0.1-1.5,0.1-2.9,0.1-4.4
			c0.1-2.1,0.1-4.1,0.1-6.1l0-0.1c-0.4,0-0.8-0.1-1.2-0.1c0,0.1,0,0.1,0,0.2C73.5,23.2,73.6,23.7,73.6,24.2z"/>
		<path class="st2" d="M66.8,26.4c0,1.1,0.1,2.2,0.1,3.2c0,1.3,0.1,2.6,0.1,3.9c0,0.8,0.1,1.5,0.1,2.3c0,0.6,0,1.1,0.1,1.7
			c0.1,0.9,0.1,1.7,0.1,2.6c0,0.8,0.1,1.7,0.1,2.5c0,0.1,0,0.1,0,0.2c0-1.4,0.1-2.9,0.1-4.3c0-1.5,0-2.9,0.1-4.4
			c0-2.3,0.1-4.5,0.1-6.7c0-1.6,0-3.2,0.1-4.8c-0.3,0-0.8,0.1-1.2,0.1c0,0.1,0,0.3,0,0.4C66.6,24.3,66.7,25.4,66.8,26.4z"/>
		<path class="st2" d="M63.5,31.9c0.1,1.2,0.1,2.4,0.2,3.7c0,0.8,0.1,1.7,0.1,2.5c0.1,1.2,0.1,2.5,0.1,3.7c0.1,0.8,0,1.5,0.1,2.3
			c0.1-2.6,0.1-5.1,0.2-7.7c0-3.5,0.1-6.4,0.2-9.7c0-1,0.1-2,0.1-3c0-0.1,0-0.3,0-0.4c-0.4,0.1-0.8,0.3-1.2,0.4l0,0
			c0,1.5,0.1,3,0.2,4.4C63.4,29.4,63.4,30.6,63.5,31.9z"/>
		<path class="st2" d="M77.1,28.2c0.1,1.1,0,2.2,0.1,3.3c0,1.2,0.1,2.5,0.1,3.7c0,0.9,0.1,1.9,0.1,2.8c0,0.8,0,1.6,0.1,2.3
			c0.1,1.3,0.1,2.5,0.2,3.8c0-0.4,0-0.8,0-1.2c0-1.2,0-2.6,0.1-3.8c0-2.1,0.1-4.1,0.1-6.2c0.1-1.4,0-2.8,0.1-4.2
			c0-1.6,0.1-3.3,0.1-4.9c0-0.1-0.2-0.1-0.3-0.2c-0.3-0.1-0.7-0.2-1-0.3c0,0.8,0.1,1.6,0.1,2.4C77,26.5,77.1,27.4,77.1,28.2z"/>
		<path class="st2" d="M63.6,46.8c-0.1,0.1-0.2,0.2-0.1,0.3c0.8-0.7,2.1-1,3.1-1.2c0.3,0,0.5-0.1,0.8-0.1c1.6-0.3,3.3-0.3,5-0.2
			c0.4,0,0.7,0.1,1.1,0.1c0.1,0.1,0.1,0.1,0.1,0c1,0.1,2,0.3,3,0.6c0.7,0.2,1.3,0.5,1.9,0.9c0-0.2-0.2-0.4-0.3-0.6
			c-0.5-0.5-1.3-0.9-2-1.1c-0.8-0.3-1.7-0.5-2.6-0.6c-0.1,0-0.6,0-1.6-0.1c-0.8-0.1-1.6,0-2.4,0c-1.3,0.1-2.7,0.3-4,0.7
			c0,0,0,0-0.1,0C64.8,45.8,64,46.2,63.6,46.8z M65.5,45.6L65.5,45.6C65.5,45.6,65.5,45.6,65.5,45.6z"/>
		<path class="st2" d="M78.8,50.7c-0.5-0.5-1.2-0.7-1.8-1c-0.8-0.2-1.7-0.4-2.5-0.5c-0.6-0.1-1.2-0.1-1.7-0.2
			c-1.1,0-2.1-0.1-3.2,0.1c-1.1,0.1-2.2,0.3-3.2,0.6c-1,0.3-2.3,0.7-3.1,1.4c0.2-0.1,0.4-0.2,0.6-0.3c1.1-0.4,2.2-0.6,3.4-0.7
			c1.5-0.2,3-0.2,4.6-0.2c0.9,0.1,1.8,0.1,2.8,0.3c0.8,0.1,1.6,0.3,2.3,0.7c0.2,0.1,0.5,0.3,0.5,0.5c0,0.2-0.1,0.3-0.3,0.4
			c-0.8,0.5-1.9,0.7-2.8,0.9c-0.6,0.1-1.2,0.2-1.7,0.2c-0.4,0.1-0.8,0.1-1.1,0.1c-1.6,0.1-3.2,0-4.8,0c-0.5,0-1-0.1-1.5-0.1
			c-0.5-0.1-0.9-0.2-1.4-0.3c0.2,0.1,0.9,0.3,0.7,0.2c0.3,0.1,0.6,0.2,0.8,0.2c0,0,0,0,0,0c0,0,0,0,0,0c0,0,0,0,0,0c0,0,0.1,0,0.1,0
			c1.1,0.3,2.3,0.4,3.5,0.5c0.7,0.1,1.4,0.1,2,0.1c0.5,0,1,0,1.4-0.1c1-0.1,2.1-0.2,3.1-0.5c0.9-0.2,1.9-0.5,2.7-1
			c0.3-0.2,0.7-0.4,0.8-0.8C79,51,78.9,50.8,78.8,50.7z"/>
	</g>
</g>
<g>
	<path class="st0" d="M162,23.8h1.3v10.2h10.1v1.3H162V23.8z"/>
	<path class="st0" d="M185.1,26v7.3c0,1.1-0.9,1.9-1.9,1.9h-5.5c-1.1,0-1.9-0.9-1.9-1.9V26h1.3v7.3c0,0.3,0.3,0.6,0.6,0.6h5.5
		c0.3,0,0.6-0.3,0.6-0.6V26H185.1z"/>
	<path class="st0" d="M197.2,26l-3.8,4.5l3.9,4.7h-1.7l-3-3.7c-0.9,1.1-2,2.5-3,3.7h-1.7l3.8-4.7l-3.8-4.5h1.7l3,3.5
		c0.9-1,2.1-2.4,3-3.5H197.2z"/>
	<path class="st0" d="M209.7,26v7.3c0,1.1-0.9,1.9-1.9,1.9h-5.5c-1.1,0-1.9-0.9-1.9-1.9V26h1.3v7.3c0,0.3,0.3,0.6,0.6,0.6h5.5
		c0.3,0,0.6-0.3,0.6-0.6V26H209.7z"/>
	<path class="st0" d="M219.8,26v1.3h-5.2c-0.3,0-0.6,0.3-0.6,0.6v7.3h-1.3v-7.3c0-1.1,0.9-1.9,1.9-1.9H219.8z"/>
	<path class="st0" d="M229.5,38.8h-5.7v-1.3h5.7c0.3,0,0.6-0.3,0.6-0.6v-1.7H224c-1.1,0-1.9-0.9-1.9-1.9V26h1.3v7.3
		c0,0.3,0.3,0.6,0.6,0.6h5.5c0.3,0,0.6-0.3,0.6-0.6V26h1.3v10.9C231.4,38,230.6,38.8,229.5,38.8z"/>
	<path class="st0" d="M242.2,25.1c-0.3,0-0.6,0.3-0.6,0.6v7.6c0,0.3,0.3,0.6,0.6,0.6h9.5v1.3h-9.5c-1.1,0-1.9-0.8-1.9-1.9v-7.6
		c0-1.1,0.8-1.9,1.9-1.9h9.5v1.3H242.2z"/>
	<path class="st0" d="M264.1,27.9v7.3h-1.3v-7.3c0-0.3-0.3-0.6-0.6-0.6h-5.5c-0.3,0-0.6,0.3-0.6,0.6v7.3h-1.3V23h1.3v3h6.2
		C263.2,26,264.1,26.8,264.1,27.9z"/>
	<path class="st0" d="M276,27.9v3.3h-8.1v2c0,0.3,0.3,0.6,0.6,0.6h7.5v1.3h-7.5c-1.1,0-1.9-0.9-1.9-1.9v-5.4c0-1.1,0.9-1.9,1.9-1.9
		h5.5C275.2,26,276,26.8,276,27.9z M274.7,29.9v-2c0-0.3-0.3-0.6-0.6-0.6h-5.5c-0.3,0-0.6,0.3-0.6,0.6v2H274.7z"/>
	<path class="st0" d="M280.4,24.9V26h4v1.3h-4v7.9H279V24.9c0-1.1,0.8-1.9,1.9-1.9h3.4v1.3H281C280.6,24.3,280.4,24.6,280.4,24.9z"
		/>
	<path class="st2" d="M184.4,43.5c1.1,0,1.9,0.8,1.9,1.9v7.6c0,1.1-0.8,1.9-1.9,1.9h-7.6c-1.1,0-1.9-0.8-1.9-1.9v-7.6
		c0-1.1,0.8-1.9,1.9-1.9H184.4z M184.4,53.7c0.3,0,0.6-0.3,0.6-0.6v-7.6c0-0.3-0.3-0.6-0.6-0.6h-7.6c-0.3,0-0.6,0.3-0.6,0.6v7.6
		c0,0.3,0.3,0.6,0.6,0.6H184.4z"/>
	<path class="st2" d="M198.8,47.7V55h-1.3v-7.3c0-0.3-0.3-0.6-0.6-0.6h-5.5c-0.3,0-0.6,0.3-0.6,0.6V55h-1.3v-9.2h7.5
		C198,45.8,198.8,46.6,198.8,47.7z"/>
	<path class="st0" d="M218.5,49c0.4,0.4,0.6,0.9,0.6,1.4v2.7c0,1.1-0.8,1.9-1.9,1.9h-9.5V43.5h9c1.1,0,1.9,0.8,1.9,1.9v2.4
		c0,0.3-0.1,0.6-0.2,0.8L218.5,49z M209.6,44.8c-0.3,0-0.6,0.3-0.6,0.6v2.4c0,0.3,0.3,0.6,0.6,0.6h7.1c0.3,0,0.6-0.3,0.6-0.6v-2.4
		c0-0.3-0.3-0.6-0.6-0.6H209.6z M217.8,50.4c0-0.3-0.3-0.6-0.6-0.6h-7.6c-0.3,0-0.6,0.3-0.6,0.6v2.7c0,0.3,0.3,0.6,0.6,0.6h7.6
		c0.3,0,0.6-0.3,0.6-0.6V50.4z"/>
	<path class="st0" d="M229.6,45.8c1.1,0,1.9,0.9,1.9,1.9v5.4c0,1.1-0.9,1.9-1.9,1.9h-5.5c-1.1,0-1.9-0.9-1.9-1.9v-5.4
		c0-1.1,0.9-1.9,1.9-1.9H229.6z M224.1,47.1c-0.3,0-0.6,0.3-0.6,0.6v5.4c0,0.3,0.3,0.6,0.6,0.6h5.5c0.3,0,0.6-0.3,0.6-0.6v-5.4
		c0-0.3-0.3-0.6-0.6-0.6H224.1z"/>
	<path class="st0" d="M243.8,47.7V55h-7.5c-1.1,0-1.9-0.9-1.9-1.9v-3.3h8.1v-2c0-0.3-0.3-0.6-0.6-0.6h-7.4v-1.3h7.4
		C242.9,45.8,243.8,46.6,243.8,47.7z M242.5,51h-6.8v2c0,0.3,0.3,0.6,0.6,0.6h6.1V51z"/>
	<path class="st0" d="M253.8,45.8v1.3h-5.2c-0.3,0-0.6,0.3-0.6,0.6V55h-1.3v-7.3c0-1.1,0.9-1.9,1.9-1.9H253.8z"/>
	<path class="st0" d="M265.2,42.8V55h-7.4c-1.1,0-1.9-0.9-1.9-1.9v-5.4c0-1.1,0.9-1.9,1.9-1.9h6.1v-3H265.2z M263.3,53.7
		c0.3,0,0.6-0.3,0.6-0.6v-5.4c0-0.3-0.3-0.6-0.6-0.6h-5.5c-0.3,0-0.6,0.3-0.6,0.6v5.4c0,0.3,0.3,0.6,0.6,0.6H263.3z"/>
</g>
</svg>
