<?xml version="1.0" encoding="utf-8"?>
<!-- Generator: Adobe Illustrator 21.1.0, SVG Export Plug-In . SVG Version: 6.00 Build 0)  -->
<svg version="1.1" id="Layer_1" xmlns="http://www.w3.org/2000/svg" xmlns:xlink="http://www.w3.org/1999/xlink" x="0px" y="0px"
	 viewBox="0 0 131 77" style="enable-background:new 0 0 131 77;" xml:space="preserve">
<style type="text/css">
	.st0{fill:#262261;}
	.st1{fill:#CDA248;}
	.st2{fill-rule:evenodd;clip-rule:evenodd;fill:#262261;}
	.st3{fill-rule:evenodd;clip-rule:evenodd;fill:#CDA248;}
</style>
<g>
	<g>
		<path class="st0" d="M5.2,64.9h0.7v5.4h5.4V71H5.2V64.9z"/>
		<path class="st0" d="M17.6,66.1V70c0,0.6-0.5,1-1,1h-3c-0.6,0-1-0.5-1-1v-3.9h0.7V70c0,0.2,0.2,0.3,0.3,0.3h3
			c0.2,0,0.3-0.2,0.3-0.3v-3.9H17.6z"/>
		<path class="st0" d="M24,66.1L22,68.5l2.1,2.5h-0.9l-1.6-2c-0.5,0.6-1.1,1.4-1.6,2H19l2.1-2.5L19,66.1h0.9l1.6,1.9
			c0.5-0.6,1.1-1.3,1.6-1.9H24z"/>
		<path class="st0" d="M30.7,66.1V70c0,0.6-0.5,1-1,1h-3c-0.6,0-1-0.5-1-1v-3.9h0.7V70c0,0.2,0.2,0.3,0.3,0.3h3
			c0.2,0,0.3-0.2,0.3-0.3v-3.9H30.7z"/>
		<path class="st0" d="M36.1,66.1v0.7h-2.8c-0.2,0-0.3,0.2-0.3,0.3V71h-0.7v-3.9c0-0.6,0.5-1,1-1H36.1z"/>
		<path class="st0" d="M41.3,73h-3.1v-0.7h3.1c0.2,0,0.3-0.2,0.3-0.3V71h-3.3c-0.6,0-1-0.5-1-1v-3.9H38V70c0,0.2,0.2,0.3,0.3,0.3h3
			c0.2,0,0.3-0.2,0.3-0.3v-3.9h0.7V72C42.3,72.5,41.9,73,41.3,73z"/>
		<path class="st0" d="M48.1,65.6c-0.2,0-0.3,0.2-0.3,0.3V70c0,0.2,0.2,0.3,0.3,0.3h5.1V71h-5.1c-0.6,0-1-0.4-1-1V66
			c0-0.6,0.4-1,1-1h5.1v0.7H48.1z"/>
		<path class="st0" d="M59.8,67.2V71h-0.7v-3.9c0-0.2-0.2-0.3-0.3-0.3h-3c-0.2,0-0.3,0.2-0.3,0.3V71h-0.7v-6.5h0.7v1.6h3.3
			C59.3,66.1,59.8,66.6,59.8,67.2z"/>
		<path class="st0" d="M66.2,67.2v1.8h-4.3V70c0,0.2,0.2,0.3,0.3,0.3h4V71h-4c-0.6,0-1-0.5-1-1v-2.9c0-0.6,0.5-1,1-1h3
			C65.7,66.1,66.2,66.6,66.2,67.2z M65.5,68.2v-1.1c0-0.2-0.1-0.3-0.3-0.3h-3c-0.2,0-0.3,0.2-0.3,0.3v1.1H65.5z"/>
		<path class="st0" d="M68.5,65.5v0.6h2.1v0.7h-2.1V71h-0.7v-5.5c0-0.6,0.4-1,1-1h1.8v0.7h-1.8C68.6,65.2,68.5,65.4,68.5,65.5z"/>
		<path class="st1" d="M80.1,64.9c0.6,0,1,0.5,1,1V70c0,0.6-0.4,1-1,1h-4.1c-0.6,0-1-0.4-1-1V66c0-0.6,0.4-1,1-1H80.1z M80.1,70.4
			c0.2,0,0.3-0.2,0.3-0.3V66c0-0.2-0.2-0.3-0.3-0.3h-4.1c-0.2,0-0.3,0.2-0.3,0.3V70c0,0.2,0.2,0.3,0.3,0.3H80.1z"/>
		<path class="st1" d="M87.8,67.2V71h-0.7v-3.9c0-0.2-0.2-0.3-0.3-0.3h-3c-0.2,0-0.3,0.2-0.3,0.3V71h-0.7v-4.9h4
			C87.4,66.1,87.8,66.6,87.8,67.2z"/>
		<path class="st0" d="M98.3,67.9c0.2,0.2,0.3,0.5,0.3,0.8V70c0,0.6-0.4,1-1,1h-5.1v-6.1h4.8c0.6,0,1,0.5,1,1v1.3
			c0,0.2,0,0.3-0.1,0.4L98.3,67.9z M93.6,65.6c-0.2,0-0.3,0.2-0.3,0.3v1.3c0,0.2,0.2,0.3,0.3,0.3h3.8c0.2,0,0.3-0.2,0.3-0.3V66
			c0-0.2-0.1-0.3-0.3-0.3H93.6z M98,68.6c0-0.2-0.2-0.3-0.3-0.3h-4.1c-0.2,0-0.3,0.2-0.3,0.3V70c0,0.2,0.2,0.3,0.3,0.3h4.1
			c0.2,0,0.3-0.2,0.3-0.3V68.6z"/>
		<path class="st0" d="M104.3,66.1c0.6,0,1,0.5,1,1V70c0,0.6-0.5,1-1,1h-3c-0.6,0-1-0.5-1-1v-2.9c0-0.6,0.5-1,1-1H104.3z
			 M101.3,66.8c-0.2,0-0.3,0.2-0.3,0.3V70c0,0.2,0.2,0.3,0.3,0.3h3c0.2,0,0.3-0.2,0.3-0.3v-2.9c0-0.2-0.1-0.3-0.3-0.3H101.3z"/>
		<path class="st0" d="M111.9,67.2V71h-4c-0.6,0-1-0.5-1-1v-1.8h4.3v-1.1c0-0.2-0.1-0.3-0.3-0.3h-4v-0.7h4
			C111.4,66.1,111.9,66.6,111.9,67.2z M111.1,68.9h-3.6V70c0,0.2,0.2,0.3,0.3,0.3h3.3V68.9z"/>
		<path class="st0" d="M117.2,66.1v0.7h-2.8c-0.2,0-0.3,0.2-0.3,0.3V71h-0.7v-3.9c0-0.6,0.5-1,1-1H117.2z"/>
		<path class="st0" d="M123.3,64.5V71h-4c-0.6,0-1-0.5-1-1v-2.9c0-0.6,0.5-1,1-1h3.3v-1.6H123.3z M122.3,70.4c0.2,0,0.3-0.2,0.3-0.3
			v-2.9c0-0.2-0.2-0.3-0.3-0.3h-3c-0.2,0-0.3,0.2-0.3,0.3V70c0,0.2,0.2,0.3,0.3,0.3H122.3z"/>
	</g>
	<g>
		<g>
			<rect x="12" y="56.4" class="st0" width="20.1" height="1.5"/>
		</g>
		<g>
			<rect x="5.8" y="6.6" class="st0" width="1.5" height="51.2"/>
		</g>
	</g>
	<g>
		<path class="st0" d="M81,50.9l-0.6,0.5c-4.6,4.3-10.7,6.8-17,7c-0.3,0-0.6,0-0.9,0c-6.6,0-13-2.5-17.9-7.1
			c-5.1-4.8-8.1-11.3-8.3-18.2c-0.2-7,2.3-13.6,7.1-18.8C48.2,9.2,54.7,6.2,61.6,6c0.3,0,0.6,0,0.9,0c6.4,0,12.5,2.3,17.3,6.6
			l0.6,0.5l-1,1.1L78,13c-4.4-3.5-9.9-5.5-15.5-5.5c-0.3,0-0.6,0-0.9,0c-6.6,0.2-12.7,3-17.2,7.9c-4.5,4.8-6.9,11.1-6.7,17.7
			c0.2,6.6,3,12.7,7.9,17.2c4.6,4.3,10.6,6.7,16.8,6.7c0.3,0,0.6,0,0.8,0c5.6-0.2,11-2.3,15.2-5.9l1.4-1.2L81,50.9z"/>
	</g>
	<g>
		<g>
			<path class="st0" d="M117.6,32.2l-0.7-0.3l0.7-0.3c1.7-0.7,3.2-1.8,4.4-3.1c2.2-2.4,3.3-5.7,3.3-9.2s-1.2-6.7-3.3-9.2
				c-2.2-2.5-5.3-3.9-9-4.1l-0.3,0v0h-1L94.2,6h-1.8v1.5H112c8.1,0,11.8,6.1,11.8,11.8c0,5.7-3.7,11.8-11.8,11.8h-0.8l-0.3,0
				l-16.7,0h-0.3V12.4h-1.5v39.1h1.5V32.7h18.3c8,0.1,11.6,6.2,11.6,11.8c0,5.7-3.7,11.8-11.8,11.8h-0.8l-0.3,0H92.3v1.5h1.8l18.6,0
				v0l0.3,0c3.6-0.2,6.7-1.7,9-4.1c2.2-2.4,3.3-5.7,3.3-9.2c0-3.5-1.2-6.7-3.3-9.2C120.8,34,119.3,32.9,117.6,32.2z"/>
		</g>
	</g>
</g>
<g>
	<path class="st2" d="M62.5,50.6c5.1,0,9.7-2.1,13-5.4c3.3-3.3,5.4-7.9,5.4-13c0-5.1-2.1-9.7-5.4-13c-3.3-3.3-7.9-5.4-13-5.4
		c-5.1,0-9.7,2.1-13,5.4c-3.3,3.3-5.4,7.9-5.4,13c0,5.1,2.1,9.7,5.4,13C52.8,48.5,57.4,50.6,62.5,50.6L62.5,50.6z M75.9,45.7
		c-3.4,3.4-8.2,5.6-13.4,5.6c-5.2,0-10-2.1-13.4-5.6c-3.4-3.4-5.6-8.2-5.6-13.4c0-5.2,2.1-10,5.6-13.4c3.4-3.4,8.2-5.6,13.4-5.6
		c5.2,0,10,2.1,13.4,5.6c3.4,3.4,5.6,8.2,5.6,13.4C81.4,37.5,79.3,42.2,75.9,45.7z"/>
	<path class="st3" d="M62.5,49.1c4.6,0,8.8-1.9,11.9-4.9c3-3,4.9-7.2,4.9-11.9c0-4.6-1.9-8.8-4.9-11.9c-3-3-7.2-4.9-11.9-4.9
		c-4.6,0-8.8,1.9-11.9,4.9c-3,3-4.9,7.2-4.9,11.9c0,4.6,1.9,8.8,4.9,11.9C53.6,47.2,57.8,49.1,62.5,49.1L62.5,49.1z M74.6,44.3
		c-3.1,3.1-7.4,5-12.1,5c-4.7,0-9-1.9-12.1-5c-3.1-3.1-5-7.4-5-12.1c0-4.7,1.9-9,5-12.1c3.1-3.1,7.4-5,12.1-5c4.7,0,9,1.9,12.1,5
		c3.1,3.1,5,7.4,5,12.1C79.6,37,77.7,41.2,74.6,44.3z"/>
	<path class="st2" d="M60.7,13.6c0.6-2.5,1.2-5.1,1.8-7.6c0.6,2.5,1.2,5.1,1.8,7.6l0,0.2l-0.2,0c-0.3,0-0.5,0-0.8-0.1
		c-0.2,0-0.5,0-0.7,0h0h0h0h0h0h0h0h0h0c-0.2,0-0.5,0-0.7,0c-0.3,0-0.5,0-0.8,0.1l-0.2,0L60.7,13.6L60.7,13.6z M62.3,8.1l-1.2,5.4
		c0.2,0,0.4,0,0.6,0c0.2,0,0.4,0,0.7,0C62.3,11.6,62.3,9.8,62.3,8.1z"/>
	<path class="st2" d="M81.1,30.5c2.5,0.6,5.1,1.2,7.6,1.8c-2.5,0.6-5.1,1.2-7.6,1.8l-0.2,0l0-0.2c0-0.3,0-0.5,0.1-0.8
		c0-0.2,0-0.5,0-0.7v0v0v0v0v0v0v0v0v0c0-0.2,0-0.5,0-0.7c0-0.3,0-0.5-0.1-0.8l0-0.2L81.1,30.5L81.1,30.5z M86.6,32.1l-5.4-1.2
		c0,0.2,0,0.4,0,0.6c0,0.2,0,0.4,0,0.7C83.1,32.1,84.9,32.1,86.6,32.1z"/>
	<path class="st2" d="M64.2,50.9c-0.6,2.5-1.2,5.1-1.8,7.6c-0.6-2.5-1.2-5.1-1.8-7.6l0-0.2l0.2,0c0.3,0,0.5,0,0.8,0.1
		c0.2,0,0.5,0,0.7,0h0h0h0h0h0h0h0h0h0c0.2,0,0.5,0,0.7,0c0.3,0,0.5,0,0.8-0.1l0.2,0L64.2,50.9L64.2,50.9z M62.6,56.4l1.2-5.4
		c-0.2,0-0.4,0-0.6,0c-0.2,0-0.4,0-0.7,0C62.6,52.8,62.6,54.6,62.6,56.4z"/>
	<path class="st2" d="M43.8,34c-2.5-0.6-5.1-1.2-7.6-1.8c2.5-0.6,5.1-1.2,7.6-1.8l0.2,0l0,0.2c0,0.3,0,0.5-0.1,0.8
		c0,0.2,0,0.5,0,0.7v0v0v0v0v0v0v0v0v0c0,0.2,0,0.5,0,0.7c0,0.3,0,0.5,0.1,0.8l0,0.2L43.8,34L43.8,34z M38.3,32.4l5.4,1.2
		c0-0.2,0-0.4,0-0.6c0-0.2,0-0.4,0-0.7C41.9,32.4,40.1,32.4,38.3,32.4z"/>
	<path class="st2" d="M74.3,17.9c1.3-0.5,2.6-1,3.9-1.5c-0.5,1.3-1,2.6-1.5,3.9l0,0.1l-0.1-0.2c-0.2-0.2-0.4-0.4-0.5-0.6
		c-0.2-0.2-0.3-0.4-0.5-0.5l0,0l0,0l0,0l0,0l0,0l0,0l0,0l0,0l0,0c-0.2-0.2-0.4-0.3-0.5-0.5c-0.2-0.2-0.4-0.4-0.6-0.5l-0.2-0.1
		L74.3,17.9L74.3,17.9z M77.4,17.1l-2.8,1c0.1,0.1,0.3,0.3,0.4,0.4c0.2,0.1,0.3,0.3,0.5,0.5C76.2,18.3,76.8,17.7,77.4,17.1z"/>
	<path class="st2" d="M76.8,44.1c0.5,1.3,1,2.6,1.5,3.9c-1.3-0.5-2.6-1-3.9-1.5l-0.1,0l0.2-0.1c0.2-0.2,0.4-0.4,0.6-0.5
		c0.2-0.2,0.4-0.3,0.5-0.5l0,0l0,0l0,0l0,0l0,0l0,0l0,0l0,0l0,0c0.2-0.2,0.3-0.4,0.5-0.5c0.2-0.2,0.4-0.4,0.5-0.6l0.1-0.2L76.8,44.1
		L76.8,44.1z M77.6,47.2l-1-2.8c-0.1,0.1-0.3,0.3-0.4,0.4c-0.1,0.2-0.3,0.3-0.5,0.5C76.4,45.9,77,46.6,77.6,47.2z"/>
	<path class="st2" d="M50.6,46.6c-1.3,0.5-2.6,1-3.9,1.5c0.5-1.3,1-2.6,1.5-3.9l0-0.1l0.1,0.2c0.2,0.2,0.4,0.4,0.5,0.6
		c0.2,0.2,0.3,0.4,0.5,0.5l0,0l0,0l0,0l0,0l0,0l0,0l0,0l0,0l0,0c0.2,0.2,0.4,0.3,0.5,0.5c0.2,0.2,0.4,0.4,0.6,0.5l0.2,0.1L50.6,46.6
		L50.6,46.6z M47.5,47.4l2.8-1c-0.1-0.1-0.3-0.3-0.4-0.4c-0.2-0.1-0.3-0.3-0.5-0.5C48.8,46.1,48.1,46.8,47.5,47.4z"/>
	<path class="st2" d="M48.1,20.4c-0.5-1.3-1-2.6-1.5-3.9c1.3,0.5,2.6,1,3.9,1.5l0.1,0l-0.2,0.1c-0.2,0.2-0.4,0.4-0.6,0.5
		c-0.2,0.2-0.4,0.3-0.5,0.5l0,0l0,0l0,0l0,0l0,0l0,0l0,0l0,0l0,0c-0.2,0.2-0.3,0.4-0.5,0.5c-0.2,0.2-0.4,0.4-0.5,0.6l-0.1,0.2
		L48.1,20.4L48.1,20.4z M47.3,17.3l1,2.8c0.1-0.1,0.3-0.3,0.4-0.4c0.1-0.2,0.3-0.3,0.5-0.5C48.6,18.5,47.9,17.9,47.3,17.3z"/>
	<path class="st3" d="M77,35.5c0.2-1,0.4-2.1,0.4-3.2c0-1.9-0.4-3.7-1-5.4l0.3-0.1c0.7,1.7,1,3.5,1,5.5c0,1.1-0.1,2.3-0.4,3.3
		L77,35.5L77,35.5z M47.7,35.6c-0.2-1.1-0.4-2.2-0.4-3.3c0-1.9,0.4-3.8,1-5.5l0.3,0.1c-0.6,1.7-1,3.5-1,5.4c0,1.1,0.1,2.2,0.4,3.2
		L47.7,35.6z"/>
	<g>
		<path class="st1" d="M57.6,38.4C57.6,38.4,57.6,38.4,57.6,38.4L57.6,38.4z"/>
		<path class="st1" d="M61.9,25.4c0,0.6,0.1,1.2,0.1,1.8c0.1,1.1,0.1,2.2,0.1,3.3c0.1,1.1,0.1,2.3,0.1,3.5c0,0,0,0,0.1,0
			c0.1-2.6,0.1-5.2,0.2-7.7c0-2.8,0.1-5.6,0.1-8.4c-0.3,0-0.7,0-1,0c0,1.3,0.1,2.6,0.1,3.9C61.9,23,61.9,24.2,61.9,25.4z"/>
		<path class="st1" d="M64.7,19.5c0,1.3,0.1,2.5,0.1,3.7c0.1,1.2,0.1,2.4,0.1,3.5c0,0.7,0,1.3,0.1,1.9c0.1,1,0.1,2.1,0.1,3.1
			c0.1,1.1,0.1,2.1,0.1,3.2c0,0.3,0,0.6,0,0.9c0-0.3,0-0.7,0-1c0-0.7,0-1.5,0-2.2c0-1.8,0.1-3.5,0.1-5.3c0.1-1.3,0.1-2.6,0.1-3.9
			c0.1-1.8,0.1-3.6,0.1-5.4l0,0c-0.3,0-0.7-0.1-1-0.1c0,0,0,0.1,0,0.2C64.7,18.6,64.7,19,64.7,19.5z"/>
		<path class="st1" d="M58.7,21.4c0,1,0.1,1.9,0.1,2.9c0,1.2,0.1,2.3,0.1,3.5c0,0.7,0.1,1.3,0.1,2c0,0.5,0,1,0,1.5
			c0.1,0.8,0.1,1.5,0.1,2.3c0,0.7,0.1,1.5,0.1,2.2c0,0.1,0,0.1,0,0.2c0-1.3,0.1-2.5,0.1-3.8c0-1.3,0-2.6,0.1-3.9c0-2,0.1-3.9,0.1-6
			c0-1.4,0-2.8,0.1-4.2c-0.3,0-0.8,0.1-1.1,0.1c0,0.1,0,0.3,0,0.4C58.6,19.5,58.7,20.5,58.7,21.4z"/>
		<path class="st1" d="M55.8,26.2c0.1,1.1,0.1,2.2,0.1,3.3c0,0.7,0,1.5,0.1,2.2c0.1,1.1,0.1,2.2,0.1,3.3c0.1,0.7,0,1.4,0.1,2.1
			c0.1-2.3,0.1-4.5,0.2-6.8c0-3.1,0.1-5.6,0.2-8.6c0-0.9,0-1.8,0.1-2.7c0-0.1,0-0.2,0-0.3c-0.4,0.1-0.7,0.2-1.1,0.4l0,0
			c0,1.3,0.1,2.6,0.1,3.9C55.7,24,55.7,25.1,55.8,26.2z"/>
		<path class="st1" d="M67.9,23c0,1,0,1.9,0.1,2.9c0,1.1,0.1,2.2,0.1,3.3c0,0.8,0.1,1.6,0.1,2.5c0,0.7,0,1.4,0.1,2.1
			c0.1,1.1,0.1,2.2,0.1,3.3c0-0.3,0-0.7,0-1.1c0-1.1,0-2.3,0.1-3.4c0-1.8,0.1-3.7,0.1-5.5c0.1-1.3,0-2.5,0.1-3.7
			c0-1.5,0.1-2.9,0.1-4.3c0-0.1-0.2-0.1-0.2-0.2c-0.3-0.1-0.6-0.2-0.9-0.3c0,0.7,0.1,1.4,0.1,2.1C67.8,21.5,67.8,22.2,67.9,23z"/>
		<path class="st1" d="M55.9,39.4c-0.1,0.1-0.2,0.2-0.1,0.3c0.7-0.6,1.9-0.9,2.8-1.1c0.2,0,0.5-0.1,0.7-0.1c1.5-0.2,2.9-0.3,4.4-0.2
			c0.3,0,0.6,0.1,0.9,0.1c0.1,0.1,0.1,0.1,0.1,0c0.9,0.1,1.8,0.3,2.7,0.6c0.6,0.2,1.1,0.4,1.6,0.8c0-0.2-0.2-0.4-0.3-0.5
			c-0.4-0.5-1.1-0.8-1.7-1c-0.7-0.2-1.5-0.4-2.3-0.5c-0.1,0-0.5,0-1.4-0.1c-0.7-0.1-1.4,0-2.1,0c-1.2,0.1-2.4,0.2-3.5,0.6
			c0,0,0,0,0,0C57,38.6,56.3,38.9,55.9,39.4z M57.6,38.4L57.6,38.4C57.6,38.4,57.6,38.4,57.6,38.4z"/>
		<path class="st1" d="M69.4,42.9c-0.4-0.4-1.1-0.7-1.6-0.9c-0.7-0.2-1.5-0.4-2.2-0.5c-0.5-0.1-1-0.1-1.5-0.2
			c-0.9,0-1.9-0.1-2.8,0.1c-1,0.1-1.9,0.3-2.9,0.5c-0.9,0.3-2,0.6-2.7,1.2c0.2,0,0.4-0.2,0.5-0.2c1-0.4,2-0.5,3-0.7
			c1.4-0.2,2.7-0.2,4.1-0.2c0.8,0.1,1.6,0.1,2.4,0.3c0.7,0.1,1.4,0.3,2,0.6c0.2,0.1,0.4,0.2,0.5,0.5c0,0.2-0.1,0.2-0.2,0.3
			c-0.7,0.4-1.6,0.6-2.4,0.8c-0.5,0.1-1,0.2-1.5,0.2c-0.3,0.1-0.7,0.1-1,0.1c-1.4,0.1-2.8,0-4.2,0c-0.4,0-0.9-0.1-1.3-0.1
			c-0.4-0.1-0.8-0.1-1.3-0.2c0.2,0.1,0.8,0.2,0.6,0.2c0.2,0.1,0.5,0.1,0.7,0.2c0,0,0,0,0,0c0,0,0,0,0,0c0,0,0,0,0,0c0,0,0,0,0.1,0
			c1,0.2,2.1,0.4,3.1,0.5c0.6,0.1,1.2,0.1,1.8,0.1c0.4,0,0.8,0,1.3-0.1c0.9-0.1,1.8-0.2,2.7-0.4c0.8-0.2,1.7-0.5,2.4-0.9
			c0.3-0.2,0.6-0.4,0.7-0.7C69.5,43.2,69.4,43,69.4,42.9z"/>
	</g>
</g>
</svg>
