<?xml version="1.0" encoding="utf-8"?>
<!-- Generator: Adobe Illustrator 21.1.0, SVG Export Plug-In . SVG Version: 6.00 Build 0)  -->
<svg version="1.1" id="Layer_1" xmlns="http://www.w3.org/2000/svg" xmlns:xlink="http://www.w3.org/1999/xlink" x="0px" y="0px"
	 viewBox="0 0 300 300" style="enable-background:new 0 0 300 300;" xml:space="preserve">
<style type="text/css">
	.st0{fill-rule:evenodd;clip-rule:evenodd;fill:#262261;}
	.st1{fill-rule:evenodd;clip-rule:evenodd;fill:#CDA248;}
	.st2{fill:#CDA248;}
</style>
<g>
	<path class="st0" d="M149.4,249.4c26.9,0,51.2-10.9,68.8-28.5c17.6-17.6,28.5-42,28.5-68.8c0-26.9-10.9-51.2-28.5-68.8
		c-17.6-17.6-42-28.5-68.8-28.5c-26.9,0-51.2,10.9-68.8,28.5C62.9,100.8,52,125.1,52,152c0,26.9,10.9,51.2,28.5,68.8
		C98.1,238.5,122.5,249.4,149.4,249.4L149.4,249.4z M220.6,223.2c-18.2,18.2-43.4,29.5-71.2,29.5c-27.8,0-53-11.3-71.2-29.5
		C59.9,205,48.7,179.8,48.7,152c0-27.8,11.3-53,29.5-71.2c18.2-18.2,43.4-29.5,71.2-29.5c27.8,0,53,11.3,71.2,29.5
		c18.2,18.2,29.5,43.4,29.5,71.2C250.1,179.8,238.8,205,220.6,223.2z"/>
	<path class="st1" d="M149.4,241.2c24.6,0,47-10,63.1-26.1c16.1-16.1,26.1-38.5,26.1-63.1c0-24.6-10-47-26.1-63.1
		c-16.1-16.1-38.5-26.1-63.1-26.1c-24.6,0-47,10-63.1,26.1C70.1,105,60.1,127.4,60.1,152c0,24.6,10,47,26.1,63.1
		C102.4,231.2,124.7,241.2,149.4,241.2L149.4,241.2z M213.6,216.2c-16.4,16.4-39.1,26.6-64.2,26.6c-25.1,0-47.8-10.2-64.2-26.6
		c-16.4-16.4-26.6-39.1-26.6-64.2c0-25.1,10.2-47.8,26.6-64.2c16.4-16.4,39.1-26.6,64.2-26.6c25.1,0,47.8,10.2,64.2,26.6
		c16.4,16.4,26.6,39.1,26.6,64.2C240.2,177.1,230,199.8,213.6,216.2z"/>
	<path class="st0" d="M140.1,53.1c3.1-13.5,6.2-27,9.4-40.5c3.1,13.5,6.2,27,9.4,40.5l0.3,1.1l-1.1-0.1c-1.4-0.1-2.8-0.2-4.2-0.3
		c-1.3-0.1-2.6-0.1-4-0.1h-0.1h-0.1h-0.1h-0.1h-0.1h-0.1h-0.1h-0.1h-0.1c-1.3,0-2.6,0-4,0.1c-1.4,0.1-2.8,0.1-4.2,0.3l-1.1,0.1
		L140.1,53.1L140.1,53.1z M148.6,23.7l-6.6,28.7c1-0.1,2.1-0.1,3.1-0.2c1.1,0,2.3-0.1,3.5-0.1C148.6,42.7,148.6,33.2,148.6,23.7z"/>
	<path class="st0" d="M248.2,142.7c13.5,3.1,27,6.2,40.5,9.4c-13.5,3.1-27,6.2-40.5,9.4l-1.1,0.3l0.1-1.1c0.1-1.4,0.2-2.8,0.3-4.2
		c0.1-1.3,0.1-2.6,0.1-4v-0.1v-0.1v-0.1v-0.1V152v-0.1v-0.1v-0.1v-0.1c0-1.3,0-2.6-0.1-4c-0.1-1.4-0.1-2.8-0.3-4.2l-0.1-1.1
		L248.2,142.7L248.2,142.7z M277.6,151.2l-28.7-6.6c0.1,1,0.1,2.1,0.2,3.1c0,1.1,0.1,2.3,0.1,3.5
		C258.7,151.2,268.2,151.2,277.6,151.2z"/>
	<path class="st0" d="M158.7,250.9c-3.1,13.5-6.2,27-9.4,40.5c-3.1-13.5-6.2-27-9.4-40.5l-0.3-1.1l1.1,0.1c1.4,0.1,2.8,0.2,4.2,0.3
		c1.3,0.1,2.6,0.1,4,0.1h0.1h0.1h0.1h0.1h0.1h0.1h0.1h0.1h0.1c1.3,0,2.6,0,4-0.1c1.4-0.1,2.8-0.1,4.2-0.3l1.1-0.1L158.7,250.9
		L158.7,250.9z M150.2,280.3l6.6-28.7c-1,0.1-2.1,0.1-3.1,0.2c-1.1,0-2.3,0.1-3.5,0.1C150.1,261.3,150.1,270.8,150.2,280.3z"/>
	<path class="st0" d="M50.5,161.3c-13.5-3.1-27-6.2-40.5-9.4c13.5-3.1,27-6.2,40.5-9.4l1.1-0.3l-0.1,1.1c-0.1,1.4-0.2,2.8-0.3,4.2
		c-0.1,1.3-0.1,2.6-0.1,4v0.1v0.1v0.1v0.1v0.1v0.1v0.1v0.1v0.1c0,1.3,0,2.6,0.1,4c0.1,1.4,0.1,2.8,0.3,4.2l0.1,1.1L50.5,161.3
		L50.5,161.3z M21.1,152.8l28.7,6.6c-0.1-1-0.1-2.1-0.2-3.1c0-1.1-0.1-2.3-0.1-3.5C40,152.8,30.5,152.8,21.1,152.8z"/>
	<path class="st0" d="M212.3,75.9c7-2.6,14-5.1,20.9-7.7c-2.6,7-5.1,14-7.7,20.9l-0.2,0.6l-0.8-0.8c-1-1.1-1.9-2.1-2.9-3.1
		c-0.9-1-1.8-1.9-2.8-2.8l0,0l0,0l0,0l0,0l-0.1-0.1l0,0l0,0l0,0l0,0c-0.9-0.9-1.9-1.8-2.8-2.8c-1-0.9-2-1.9-3.1-2.9l-0.8-0.8
		L212.3,75.9L212.3,75.9z M228.7,71.5L213.9,77c0.8,0.7,1.5,1.4,2.3,2.2c0.8,0.8,1.7,1.6,2.5,2.4C222,78.2,225.4,74.9,228.7,71.5z"
		/>
	<path class="st0" d="M225.5,214.9c2.6,7,5.1,14,7.7,20.9c-7-2.6-14-5.1-20.9-7.7l-0.6-0.2l0.8-0.8c1.1-1,2.1-1.9,3.1-2.9
		c1-0.9,1.9-1.8,2.8-2.8l0,0l0,0l0,0l0,0l0.1-0.1l0,0l0,0l0,0l0,0c0.9-0.9,1.8-1.9,2.8-2.8c0.9-1,1.9-2,2.9-3.1l0.8-0.8L225.5,214.9
		L225.5,214.9z M229.8,231.4l-5.5-14.8c-0.7,0.8-1.4,1.5-2.2,2.3c-0.8,0.8-1.6,1.7-2.4,2.5C223.1,224.7,226.5,228,229.8,231.4z"/>
	<path class="st0" d="M86.4,228.1c-7,2.6-14,5.1-20.9,7.7c2.6-7,5.1-14,7.7-20.9l0.2-0.6l0.8,0.8c1,1.1,1.9,2.1,2.9,3.1
		c0.9,1,1.8,1.9,2.8,2.8l0,0l0,0l0,0l0,0l0.1,0.1l0,0l0,0l0,0l0,0c0.9,0.9,1.9,1.8,2.8,2.8c1,0.9,2,1.9,3.1,2.9l0.8,0.8L86.4,228.1
		L86.4,228.1z M70,232.5l14.8-5.5c-0.8-0.7-1.5-1.4-2.3-2.2c-0.8-0.8-1.7-1.6-2.5-2.4C76.7,225.8,73.3,229.1,70,232.5z"/>
	<path class="st0" d="M73.3,89.1c-2.6-7-5.1-14-7.7-20.9c7,2.6,14,5.1,20.9,7.7l0.6,0.2l-0.8,0.8c-1.1,1-2.1,1.9-3.1,2.9
		c-1,0.9-1.9,1.8-2.8,2.8l0,0l0,0l0,0l0,0l-0.1,0.1l0,0l0,0l0,0l0,0c-0.9,0.9-1.8,1.9-2.8,2.8c-0.9,1-1.9,2-2.9,3.1l-0.8,0.8
		L73.3,89.1L73.3,89.1z M68.9,72.6l5.5,14.8c0.7-0.8,1.4-1.5,2.2-2.3c0.8-0.8,1.6-1.7,2.4-2.5C75.6,79.3,72.3,76,68.9,72.6z"/>
	<path class="st1" d="M226.4,169.2c1.2-5.5,1.9-11.3,1.9-17.2c0-10.1-1.9-19.7-5.3-28.5l1.6-0.5c3.5,9,5.4,18.8,5.4,29.1
		c0,6.1-0.7,12-2,17.8L226.4,169.2L226.4,169.2z M70.8,169.8c-1.3-5.7-2-11.7-2-17.8c0-10.3,1.9-20.1,5.4-29.1l1.6,0.5
		c-3.4,8.9-5.3,18.5-5.3,28.5c0,5.9,0.6,11.7,1.9,17.2L70.8,169.8z"/>
	<g>
		<path class="st2" d="M123.6,184.5C123.5,184.6,123.6,184.6,123.6,184.5L123.6,184.5z"/>
		<path class="st2" d="M146.5,115.8c0.2,3.1,0.3,6.4,0.4,9.6c0.3,5.8,0.5,11.6,0.7,17.4c0.5,6.1,0.5,12.2,0.8,18.3
			c0.1,0,0.3,0,0.4,0c0.5-13.8,0.4-27.5,1-41c0.1-14.9,0.7-29.5,0.8-44.4c-1.7-0.1-3.6-0.1-5.4,0c0,6.9,0.6,13.8,0.7,20.7
			C146.2,102.9,146.2,109.3,146.5,115.8z"/>
		<path class="st2" d="M161.3,84.3c0.2,6.7,0.6,13.2,0.7,19.9c0.5,6.3,0.5,12.5,0.8,18.8c0.2,3.5,0.3,6.8,0.4,10.3
			c0.3,5.6,0.5,11.1,0.6,16.7c0.5,5.7,0.4,11.3,0.7,17c0,1.5,0.1,3,0.1,4.5c0.2-1.3,0.1-3.7,0.3-5.2c0-3.9,0.1-7.8,0.2-11.7
			c0.2-9.3,0.3-18.8,0.5-28c0.3-6.9,0.3-13.7,0.4-20.6c0.3-9.7,0.4-19.1,0.6-28.7l-0.1-0.2c-1.8-0.1-3.6-0.6-5.5-0.7
			c-0.1,0.2-0.2,0.5-0.1,0.9C161.2,79.5,161.3,81.9,161.3,84.3z"/>
		<path class="st2" d="M129.3,94.6c0,5.1,0.5,10.2,0.6,15.3c0.1,6.2,0.6,12.3,0.7,18.4c0.2,3.5,0.3,7.1,0.5,10.6
			c0.1,2.6,0,5.2,0.3,7.8c0.3,4,0.3,8,0.5,12.1c0.1,3.9,0.5,7.8,0.4,11.7c0,0.4,0,0.6,0.2,1c0.1-6.7,0.3-13.4,0.4-20.1
			c0.1-6.9,0.2-13.7,0.5-20.6c0.1-10.7,0.3-20.9,0.6-31.6c0.1-7.5,0.2-14.9,0.5-22.5c-1.6,0-4,0.4-5.6,0.6c-0.2,0.6,0,1.4,0,2
			C128.8,84.4,129.2,89.5,129.3,94.6z"/>
		<path class="st2" d="M113.8,120c0.4,5.7,0.4,11.5,0.7,17.3c0.2,4,0.3,7.9,0.4,11.9c0.4,5.8,0.4,11.6,0.7,17.4
			c0.3,3.6,0.2,7.3,0.4,10.9c0.5-12.2,0.3-23.9,0.9-36.1c0.1-16.2,0.7-29.9,0.8-45.8c0.2-4.7,0.3-9.5,0.4-14.2
			c0-0.6,0.2-1.3-0.1-1.8c-1.9,0.3-3.8,1.3-5.6,2l-0.1,0.2c0.1,7,0.6,13.9,0.7,20.9C113.5,108.5,113.6,114.3,113.8,120z"/>
		<path class="st2" d="M178,103.1c0.2,5.1,0.2,10.2,0.6,15.3c0.2,5.8,0.4,11.6,0.7,17.3c0,4.4,0.3,8.7,0.5,13.1
			c0.2,3.7,0.2,7.3,0.4,11c0.4,5.9,0.3,11.8,0.8,17.7c0.2-1.8,0-3.8,0.1-5.6c0.1-5.8,0.2-12.4,0.4-18.1c0.2-9.7,0.3-19.5,0.6-29.1
			c0.3-6.7,0.2-13.2,0.4-19.9c0.2-7.7,0.4-15.3,0.4-23c0.1-0.6-0.8-0.7-1.2-0.9c-1.5-0.7-3.1-1-4.6-1.6c0.1,3.8,0.3,7.5,0.5,11.4
			C177.6,94.8,177.8,98.9,178,103.1z"/>
		<path class="st2" d="M114.3,190.1c-0.3,0.5-0.9,1-0.7,1.6c3.9-3.1,9.8-4.5,14.6-5.6c1.3,0,2.4-0.6,3.7-0.6
			c7.7-1.2,15.5-1.5,23.3-1c1.7,0.1,3.3,0.4,5,0.5c0.3,0.3,0.3,0.3,0.7,0.1c4.7,0.6,9.6,1.4,14.1,2.9c3.2,0.9,6.1,2.4,8.8,4.3
			c0-0.9-0.9-2-1.4-2.7c-2.4-2.6-6-4.1-9.2-5.2c-4-1.3-8.1-2.2-12.2-2.7c-0.4-0.1-2.8-0.1-7.6-0.7c-3.7-0.3-7.4-0.2-11.1,0.1
			c-6.2,0.3-12.7,1.3-18.6,3.3c-0.1,0-0.1,0-0.2,0.1C120.2,185.6,116.5,187.3,114.3,190.1z M123.6,184.5L123.6,184.5
			C123.6,184.6,123.5,184.6,123.6,184.5z"/>
		<path class="st2" d="M185.9,208.6c-2.3-2.3-5.6-3.5-8.6-4.5c-3.8-1.2-7.8-2.1-11.7-2.6c-2.7-0.5-5.5-0.5-8.2-0.9
			c-4.9-0.1-10-0.3-14.9,0.3c-5.1,0.4-10.3,1.4-15.2,2.6c-4.9,1.4-10.6,3.2-14.5,6.6c1-0.3,1.9-0.8,2.9-1.2
			c5.2-1.9,10.5-2.8,15.9-3.5c7.2-0.9,14.3-1,21.6-0.8c4.4,0.3,8.6,0.7,12.9,1.5c3.8,0.7,7.4,1.6,10.9,3.3c0.9,0.7,2.2,1.3,2.4,2.5
			c0.1,0.9-0.6,1.2-1.2,1.7c-3.8,2.1-8.7,3.1-13,4c-2.7,0.5-5.4,0.9-8.2,1.1c-1.8,0.3-3.5,0.4-5.3,0.4c-7.5,0.5-14.9,0.1-22.4-0.1
			c-2.4-0.1-4.7-0.5-7.1-0.6c-2.3-0.3-4.4-0.8-6.6-1.3c1.1,0.3,4.3,1.2,3.2,0.9c1.2,0.3,2.9,0.8,3.7,1c-0.1,0-0.1,0,0.2,0.1
			c0.1,0,0.1,0,0.2,0c0.1,0,0.1,0,0,0c0.1,0,0.2,0,0.3,0.1c5.3,1.2,10.9,2.1,16.4,2.4c3.1,0.5,6.4,0.4,9.6,0.4c2.3,0,4.5,0,6.7-0.4
			c4.9-0.3,9.8-1.1,14.5-2.2c4.3-1.1,8.8-2.4,12.7-4.7c1.5-0.9,3.1-2,3.6-3.8C186.9,210.1,186.3,209.3,185.9,208.6z"/>
	</g>
</g>
</svg>
